<?xml version="1.0" encoding="utf-8"?>
<!-- Generator: Adobe Illustrator 27.4.0, SVG Export Plug-In . SVG Version: 6.00 Build 0)  -->
<svg version="1.1" id="Layer_1" xmlns="http://www.w3.org/2000/svg" xmlns:xlink="http://www.w3.org/1999/xlink" x="0px" y="0px"
	 viewBox="0 0 1151.6 512.4" style="enable-background:new 0 0 1151.6 512.4;" xml:space="preserve">
<style type="text/css">
	.st0{fill:#EE3124;}
	.st1{fill:#FFFFFF;}
	.st2{display:none;fill:#FFFFFF;enable-background:new    ;}
	.st3{font-family:'CoreSansC-95BlackIt';}
	.st4{font-size:118.9508px;}
	.st5{letter-spacing:-3;}
	.st6{enable-background:new    ;}
	.st7{letter-spacing:-4;}
</style>
<g id="Shout">
	<g>
		<path d="M123.9,354.3V93.8c0-42.2,34.3-76.6,76.5-76.6h857.3c42.2,0,76.5,34.3,76.5,76.6v265.7c0,42.2-34.3,76.5-76.5,76.5H202.9
			L39.9,483L123.9,354.3z"/>
		<path class="st0" d="M1057.8,34.6c32.7,0,59.3,26.5,59.3,59.3v265.7c0,32.7-26.5,59.2-59.3,59.2H200.5L79.8,453.5l61.4-94V93.8
			c0-32.7,26.5-59.3,59.3-59.3L1057.8,34.6 M1057.8,0H200.5c-51.7,0-93.8,42.1-93.8,93.8v255.4l-55.8,85.4L0,512.4l89.3-25.7
			l116-33.4h852.4c51.7,0,93.8-42.1,93.8-93.8V93.8C1151.6,42.1,1109.5,0,1057.8,0"/>
		<path class="st1" d="M205.7,275.6c14,13.5,27.8,17.3,42.1,16.3c12.5-0.9,17-4.5,16.7-9.2c-0.3-4-3.3-6.2-15.9-10.1l-19.4-5.8
			c-30.3-9-44.5-24.7-46.1-47.2c-2.3-33.4,24.5-57.1,72.8-60.5c27.7-1.9,54.9,2.8,74.3,22.4l-38.5,34.1
			c-11.2-11.3-24-13.3-36.5-12.4c-10.4,0.7-14.9,4.6-14.6,9.3c0.3,3.6,4,5.9,16.3,9.3l23.5,6.2c30.8,8.1,42,22.7,43.5,43.8
			c2.5,36.2-25.6,61.7-76,65.2c-29.6,2.1-60.3-5.5-81.9-25.4L205.7,275.6z"/>
		<polygon class="st1" points="897.7,286.7 916.5,160.6 875.1,163.4 881.6,120 1018.8,110.4 1012.3,153.9 974.5,156.5 955.7,282.6 
					"/>
		<path class="st1" d="M1060.2,275.3l-49,3.4l7.5-49.5l49-3.4L1060.2,275.3z M1025.7,216.4c0.4-25,1.9-51.2,4.7-106.8l59.8-4.2
			c-14.9,58.6-21,83.3-28.1,108.5L1025.7,216.4z"/>
		<g>
			<path class="st1" d="M491.9,147.2l-38.6,2.7l-9,57.9l-40.5,2.8l9-57.9l-58,4.1l-25.5,169.6l58-4.1l9.5-64.9l40.5-2.8l-9.5,64.9
				l58-4l0.7-5c-10.9-16.5-17.8-36.7-19.5-60.5C464.3,210.1,473.4,174.7,491.9,147.2z"/>
			<path class="st1" d="M813,124.8l-14.7,98.5c-0.8,5.8-2.1,13.9-4.2,18.1c-2.9,5.9-8.6,9.4-16.9,10c-8.5,0.6-15.7-2.7-16.4-12.6
				c-0.3-5,0.5-10.5,1.4-17l14.1-94.4l-57.7,4l-0.2,1.1c11.6,16.4,18.7,36.9,20.4,61.2c2.3,32.5-3.2,66.1-17.6,94.4
				c12.4,9.5,30.8,13.5,54.9,11.9c29.8-2.1,52.9-11.5,65.3-31.4c6.4-10.4,10.7-23.3,13.7-42.3l16.2-105.5L813,124.8z"/>
		</g>
		<path class="st0" d="M711.3,199.7c2.5,35.5-6.6,72.7-29.7,98.3c-19.3,20.9-45.7,32.1-78,34.4c-59.9,4.2-104.9-28.1-109.1-87.7
			c-2.4-34,6.1-63.9,22.9-86.4c18.7-25,48-41.1,84.4-43.6C664.4,110.3,707.2,141.5,711.3,199.7 M576,192.5
			c-6.8,11.3-10.6,28.2-9.4,46c1.4,20.1,11.6,36,35.2,34.4c12.8-0.9,22.6-7.7,28.8-18.7c6.8-11.6,9.7-28.1,8.4-47.4
			c-1.8-25.6-15-34-32.1-32.8C593.2,174.9,582.8,181.5,576,192.5"/>
	</g>
</g>
<g id="Shouts">
	<g>
		<path d="M123.9,354.3V93.8c0-42.2,34.3-76.6,76.5-76.6h857.3c42.2,0,76.5,34.3,76.5,76.6v265.7c0,42.2-34.3,76.5-76.5,76.5H202.9
			L39.9,483L123.9,354.3z"/>
		<path class="st0" d="M1057.8,34.6c32.7,0,59.3,26.5,59.3,59.3v265.7c0,32.7-26.5,59.2-59.3,59.2H200.5L79.8,453.5l61.4-94V93.8
			c0-32.7,26.5-59.3,59.3-59.3L1057.8,34.6 M1057.8,0H200.5c-51.7,0-93.8,42.1-93.8,93.8v255.4l-55.8,85.4L0,512.4l89.3-25.7
			l116-33.4h852.4c51.7,0,93.8-42.1,93.8-93.8V93.8C1151.6,42.1,1109.5,0,1057.8,0"/>
		<path class="st1" d="M205.7,233.8c14,13.5,27.8,17.3,42.1,16.3c12.5-0.9,17-4.5,16.7-9.2c-0.3-4-3.3-6.2-15.9-10.1l-19.4-5.8
			c-30.3-9.1-44.5-24.7-46.1-47.2c-2.3-33.4,24.5-57.1,72.8-60.5c27.7-1.9,54.9,2.8,74.3,22.4l-38.5,34.1
			c-11.2-11.3-24-13.3-36.5-12.4c-10.4,0.7-14.9,4.6-14.6,9.3c0.3,3.6,4,5.9,16.3,9.3l23.5,6.2c30.8,8.1,42,22.7,43.5,43.8
			c2.5,36.2-25.6,61.7-76,65.2c-29.6,2.1-60.3-5.5-81.9-25.4L205.7,233.8z"/>
		<polygon class="st1" points="897.7,244.8 916.5,118.7 875.1,121.6 881.6,78.1 1018.8,68.5 1012.3,112 974.5,114.7 955.7,240.8 		
			"/>
		<path class="st1" d="M1060.2,233.5l-49,3.4l7.5-49.5l49-3.4L1060.2,233.5z M1025.7,174.5c0.4-25,1.9-51.2,4.7-106.8l59.8-4.2
			c-14.9,58.6-21,83.3-28.1,108.5L1025.7,174.5z"/>
		<g>
			<path class="st1" d="M491.9,105.4l-38.6,2.7l-9,57.9l-40.5,2.8l9-57.9l-58,4.1l-25.5,169.6l58-4.1l9.5-64.9l40.5-2.8l-9.5,64.9
				l58-4l0.7-5c-10.9-16.5-17.8-36.7-19.5-60.5C464.3,168.2,473.4,132.9,491.9,105.4z"/>
			<path class="st1" d="M813,82.9l-14.7,98.5c-0.8,5.8-2.1,13.9-4.2,18.1c-2.9,5.9-8.6,9.4-16.9,10c-8.5,0.6-15.7-2.7-16.4-12.6
				c-0.3-5,0.5-10.5,1.4-17l14.1-94.4l-57.7,4l-0.2,1.1c11.6,16.4,18.7,36.9,20.4,61.2c2.3,32.5-3.2,66.2-17.6,94.4
				c12.4,9.5,30.8,13.5,54.9,11.9c29.8-2.1,52.9-11.6,65.3-31.4c6.4-10.4,10.7-23.3,13.7-42.3l16.2-105.5L813,82.9z"/>
		</g>
		<path class="st0" d="M711.3,157.8c2.5,35.5-6.6,72.7-29.7,98.3c-19.3,20.9-45.7,32.1-78,34.4c-59.9,4.2-104.9-28.1-109.1-87.7
			c-2.4-34,6.1-63.9,22.9-86.4c18.7-25,48-41.1,84.4-43.6C664.4,68.4,707.2,99.6,711.3,157.8 M576,150.6c-6.8,11.3-10.6,28.2-9.4,46
			c1.4,20.1,11.6,36,35.2,34.4c12.8-0.9,22.6-7.7,28.8-18.7c6.8-11.6,9.7-28.1,8.4-47.4c-1.8-25.6-15-34-32.1-32.8
			C593.2,133,582.8,139.6,576,150.6"/>
	</g>
	<text transform="matrix(1 0 0 1 668.8896 385.4739)" class="st2 st3 st4 st5">Futures</text>
	<g class="st6">
		<path class="st1" d="M620.5,352.2c0-2.7,0.3-5.5,0.8-8.3c4.7-24.3,28.1-43.1,53.9-43.1c12,0,21.6,3.9,28.3,10.6l-16.6,18.4
			c-3.3-4-8.9-7.1-15.9-7.1c-11.5,0-21.9,9-24.2,21.2c-0.3,1.6-0.5,3.2-0.5,4.7c0,9.7,6.4,16.5,16.4,16.5c7,0,14.4-3.6,19.6-8
			l9.9,18.3c-9.8,7.4-21.5,11.5-33.8,11.5C635.7,386.9,620.5,372.3,620.5,352.2z"/>
		<path class="st1" d="M737.5,322.4c17.6,0,29.4,11,29.4,26.2c0,2-0.2,4-0.6,6.1c-3.5,18.2-21.5,32.2-41.3,32.2
			c-17.6,0-29.4-11.1-29.4-26.2c0-2,0.2-3.9,0.6-6C699.7,336.5,717.7,322.4,737.5,322.4z M720,356.9c0,5,3.5,8.6,9.1,8.6
			c6.4,0,11.8-4.6,13-10.8c0.2-0.8,0.2-1.6,0.2-2.3c0-5-3.4-8.5-9-8.5c-6.4,0-11.9,4.6-13.1,10.8C720.1,355.4,720,356.2,720,356.9z"
			/>
		<path class="st1" d="M790.9,385.5h-24.7l12-61.6h24.7l-1.1,5.6c3.7-4.4,9.5-7,15.3-7c11.5,0,19.2,7.7,19.2,18.4
			c0,1.5-0.2,3.1-0.5,4.8l-7.7,39.9h-24.7l6.8-35.3c0.1-0.6,0.1-1,0.1-1.4c0-2.9-2-4.9-5.3-4.9c-2.7,0-5.4,1.7-6.7,3.9L790.9,385.5z
			"/>
		<path class="st1" d="M861,385.5h-24.7l12-61.6H873l-1.1,5.6c3.7-4.4,9.5-7,15.3-7c11.5,0,19.2,7.7,19.2,18.4
			c0,1.5-0.2,3.1-0.5,4.8l-7.7,39.9h-24.7l6.8-35.3c0.1-0.6,0.1-1,0.1-1.4c0-2.9-2-4.9-5.3-4.9c-2.7,0-5.4,1.7-6.7,3.9L861,385.5z"
			/>
		<path class="st1" d="M941.9,369.8c5.5,0,11.1-2.6,16.2-6.5l9,12.5c-8.2,7.4-18.4,11.2-29.4,11.2c-18.2,0-29.7-11-29.7-26.1
			c0-2,0.2-4,0.6-6.1c3.6-18.2,21.3-32.2,40.7-32.2c16.7,0,27.7,10.8,27.7,25.4c0,2-0.2,3.9-0.6,6c-0.5,2.4-1.4,5-2.6,7h-41.8
			C932.1,367.1,935.5,369.8,941.9,369.8z M934.6,347.9h18.3v-0.8c0-5.2-2.3-7.6-7.4-7.6C940.3,339.6,936.8,342.2,934.6,347.9z"/>
		<path class="st1" d="M1036.7,375.5c-7.8,7-18.1,11.4-29.3,11.4c-17.6,0-29.4-11.1-29.4-26.2c0-2,0.2-3.9,0.6-6
			c3.6-18.2,21.5-32.2,41.4-32.2c10,0,18.1,3.6,23.3,9.4l-14.5,17.1c-2.9-2.6-7.3-5.1-12.4-5.1c-6.4,0-11.9,4.6-13.1,10.8
			c-0.2,1-0.2,1.7-0.2,2.3c0,5,3.5,8.6,9.1,8.6c5.1,0,10.9-3,15.3-5.9L1036.7,375.5z"/>
		<path class="st1" d="M1071.8,361.3c-0.1,0.4-0.1,0.7-0.1,1.1c0,2.1,1.5,3.3,4.2,3.3c2.4,0,5.1-0.1,7.4-0.5l-3.9,19.6
			c-3.8,1.3-9.4,2-14.9,2c-11.2,0-18.6-7.1-18.6-17.3c0-1.4,0.2-2.9,0.5-4.5l3.9-20.1h-7.6l4.1-21.2h7.6l3-15.7l25.2-2.1l-3.4,17.8
			h11.4l-4.1,21.2H1075L1071.8,361.3z"/>
	</g>
	<text transform="matrix(1 0 0 1 609.8901 385.4739)" class="st2 st3 st4 st5">Network</text>
	<text transform="matrix(1 0 0 1 481.6636 385.4739)" class="st2 st3 st4 st7">Exhibitions</text>
</g>
</svg>
