<?xml version="1.0" encoding="UTF-8"?>
<svg id="svg2" xmlns="http://www.w3.org/2000/svg" version="1.1" xmlns:cc="http://creativecommons.org/ns#" xmlns:dc="http://purl.org/dc/elements/1.1/" xmlns:rdf="http://www.w3.org/1999/02/22-rdf-syntax-ns#" xmlns:svg="http://www.w3.org/2000/svg" viewBox="0 0 183.9 201.9">
  <defs>
    <style>
      .cls-1 {
        stroke: #000;
        stroke-miterlimit: 10;
        stroke-width: .1px;
      }

      .cls-1, .cls-2 {
        fill: #fff;
      }

      .cls-2 {
        stroke-width: 0px;
      }
    </style>
  </defs>
  <g id="Layer_1" data-name="Layer 1">
    <g id="g7">
      <g id="surface0">
        <path id="path10" class="cls-1" d="M141.9,0c7.2-.7,14.9,2.3,19.4,8.1,3.2,3.6,4.6,8.4,5.1,13-.2,7.2-3.9,14.2-9.9,18.2-6,3.8-13.8,4.9-20.4,2.1-11.1-3.8-17.6-18-12.1-28.6,3.1-7.2,10.2-11.9,17.8-12.9Z"/>
        <path id="path12" class="cls-2" d="M141.9,0c7.2-.7,14.9,2.3,19.4,8.1,3.2,3.6,4.6,8.4,5.1,13-.2,7.2-3.9,14.2-9.9,18.2-6,3.8-13.8,4.9-20.4,2.1-11.1-3.8-17.6-18-12.1-28.6,3.1-7.2,10.2-11.9,17.8-12.9Z"/>
        <path id="path14" class="cls-1" d="M46.2,29.1c16.5-7.8,35.8-8.6,53.1-3.3,2.8,2.1,5,4.9,6.3,8.3-.4,3.5-1.6,7.3-4.7,9.4-3.6,2.7-8.5,2.1-12.6,1.3-8.2-1.9-16.5-4-24.9-3.3-17,1.5-33,8.4-47.5,17-5.6,2.9-10.2,7.5-15.8,10.4,3.2-7,8.2-13,14-18.1,10.2-7.9,20-17,32.3-21.7Z"/>
        <path id="path16" class="cls-2" d="M46.2,29.1c16.5-7.8,35.8-8.6,53.1-3.3,2.8,2.1,5,4.9,6.3,8.3-.4,3.5-1.6,7.3-4.7,9.4-3.6,2.7-8.5,2.1-12.6,1.3-8.2-1.9-16.5-4-24.9-3.3-17,1.5-33,8.4-47.5,17-5.6,2.9-10.2,7.5-15.8,10.4,3.2-7,8.2-13,14-18.1,10.2-7.9,20-17,32.3-21.7Z"/>
        <path id="path18" class="cls-1" d="M144.3,59.1c3.5-4.1,9.4-2.9,13.7-1.2,1.2,1.7,2.7,3.3,3.4,5.3,2.4,6.5,3.7,13.2,4.6,20.1,3.6,19.2,6.1,38.6,8.2,58.1.9,5.9,1.1,11.9.7,17.9-1.1-1.5-2.1-3.1-2.8-4.8-10.5-25.3-21.6-50.5-29.1-76.9-2-5.9-3.4-13.3,1.1-18.4Z"/>
        <path id="path20" class="cls-2" d="M144.3,59.1c3.5-4.1,9.4-2.9,13.7-1.2,1.2,1.7,2.7,3.3,3.4,5.3,2.4,6.5,3.7,13.2,4.6,20.1,3.6,19.2,6.1,38.6,8.2,58.1.9,5.9,1.1,11.9.7,17.9-1.1-1.5-2.1-3.1-2.8-4.8-10.5-25.3-21.6-50.5-29.1-76.9-2-5.9-3.4-13.3,1.1-18.4Z"/>
        <path id="path22" class="cls-1" d="M63.4,113.4c-3.5-7.8,3.8-17.2,12-16.7,7,.4,14,1.6,20.8,3.4,4,1.3,8.7-.8,12.3,1.8,2.2,1.2,2.5,4.1,4.8,5.2,9,5,17.3,12.7,19.5,23.1,2.2,17.5-1.8,35.7-10.1,51.2-3.6,6.9-7.7,13.6-11.3,20.5,1.3-16.2,5.4-32.3,4.2-48.7-1.2-6.6-1.2-15-7.7-18.9-4.8,9.7-9.2,19.8-16.6,27.9-7.5,7.6-15.3,15.1-24.5,20.6-16.7,9.7-35.7,15-54.8,16.6,6.7-3.7,14.5-5.3,20.9-9.5,12.4-8,24.4-16.9,34-28.1,8-9.9,12-22.3,14.8-34.5-7.4-2.3-15.3-6.2-18.3-13.8Z"/>
        <path id="path24" class="cls-2" d="M63.4,113.4c-3.5-7.8,3.8-17.2,12-16.7,7,.4,14,1.6,20.8,3.4,4,1.3,8.7-.8,12.3,1.8,2.2,1.2,2.5,4.1,4.8,5.2,9,5,17.3,12.7,19.5,23.1,2.2,17.5-1.8,35.7-10.1,51.2-3.6,6.9-7.7,13.6-11.3,20.5,1.3-16.2,5.4-32.3,4.2-48.7-1.2-6.6-1.2-15-7.7-18.9-4.8,9.7-9.2,19.8-16.6,27.9-7.5,7.6-15.3,15.1-24.5,20.6-16.7,9.7-35.7,15-54.8,16.6,6.7-3.7,14.5-5.3,20.9-9.5,12.4-8,24.4-16.9,34-28.1,8-9.9,12-22.3,14.8-34.5-7.4-2.3-15.3-6.2-18.3-13.8Z"/>
      </g>
    </g>
    <path id="path2434" class="cls-2" d="M171.2,175.5c-2.5-1.5-3.9-4.2-3.9-7.6s.4-3.2,1.9-4.9c3.6-4.1,9.2-4.1,12.8,0,1.5,1.7,1.9,2.7,1.9,5,0,6.9-6.9,11-12.7,7.5ZM177.5,170c1.3-1.4.8-3.5-.8-4-2.7-.9-4.7,1.9-2.8,4,.6.6,1.4,1.2,1.8,1.2s1.2-.5,1.8-1.2Z"/>
  </g>
</svg>