<?xml version="1.0" encoding="UTF-8"?>
<svg id="svg2" xmlns="http://www.w3.org/2000/svg" version="1.1" xmlns:cc="http://creativecommons.org/ns#" xmlns:dc="http://purl.org/dc/elements/1.1/" xmlns:inkscape="http://www.inkscape.org/namespaces/inkscape" xmlns:rdf="http://www.w3.org/1999/02/22-rdf-syntax-ns#" xmlns:sodipodi="http://sodipodi.sourceforge.net/DTD/sodipodi-0.dtd" xmlns:svg="http://www.w3.org/2000/svg" viewBox="0 0 263 222.8">
  <defs>
    <style>
      .cls-1 {
        fill: #fff;
        stroke-width: 0px;
      }
    </style>
  </defs>
  <path class="cls-1" d="M209,96.8c0,4.9-4,8.9-8.9,8.9s-8.9-4-8.9-8.9,4-8.9,8.9-8.9,8.9,3.9,8.9,8.9ZM254.1,204.8c-4.9,0-8.9,4-8.9,8.9s4,8.9,8.9,8.9,8.9-4,8.9-8.9-4-8.9-8.9-8.9ZM139.7,122.8c5.4,6,1.1,30.9-10,57.7-5.2,12.7-15.6,30.5-15.5,26.7,0-.4.9-6.9,2-14.4s2.2-19,2.5-25.5l.6-11.9-2,5.5c-3.8,10.5-15.1,31.5-21.7,40.8-3.6,5.1-6.8,9.1-7,8.9s1.4-8.4,3.6-18.3,4.4-22.6,5-28.4c.6-5.8,1.3-12.4,1.5-14.6.3-3.1,0-4.5-1.4-5.8s-10.3-2.6-14.5-3.2c2.1,9,2.7,19,1.2,29.4-4.4,30.4-24.3,53.1-45.7,53.1s-2.9-.1-4.3-.3C11,219.2-3.8,190.2.8,157.8c4.4-30.4,24.3-53.1,45.7-53.1h0c1.4,0,2.9.1,4.3.3,2,.3,3.9.8,5.8,1.4h0s14.4,2.8,22.2,2l6.6-.7-5.4-3.6c-12.4-8.3-21.1-17.8-28.6-31.3-5.8-10.5-7.7-16.7-7.7-26.3s.5-9.5,2.8-11.2c1.5-1.2,3.4-2.4,7.2-2.4s5.7,1.7,6.9,3.3c3.6,4.7,4.2,6.8,8.2,22,1.8,7,4.8,15.4,6.5,18.6,3.8,7.1,13.8,19.8,21.2,26.7,5.1,4.8,6,5.3,15.4,7.4,10.4,2.3,24.6,8.3,27.8,11.9ZM71.6,129.5c-5.2-10.1-12.9-16.4-21.7-17.7-1.1-.2-2.2-.2-3.3-.2h0c-18,0-35,20.7-38.8,47.1-2,14.3-.1,28.1,5.5,39.1,5.2,10.1,12.9,16.4,21.7,17.7,1.1.2,2.2.2,3.3.2,18,0,35-20.7,38.8-47.1,2-14.2.1-28.1-5.5-39.1ZM174.2,95.4c-12.1-2.9-34-11.9-53.1-33.5-7.8-8.8-12.8-12-16.5-10-1.4.7-3.7,3-4.6,4.3-1.1,1.5-2,3.3-.9,7.5,4.2,15.8,25.7,32.1,48.9,36.2,5.3.9,12.2,1.8,21.4,1.7,22.5-.4,23.6-1.8,4.8-6.2ZM89.6,42.4c11.7,0,21.2-9.5,21.2-21.2S101.3,0,89.6,0s-21.2,9.5-21.2,21.2c0,11.7,9.5,21.2,21.2,21.2Z"/>
</svg>