<?xml version="1.0" encoding="utf-8"?>
<!-- Generator: Adobe Illustrator 27.4.1, SVG Export Plug-In . SVG Version: 6.00 Build 0)  -->
<svg version="1.1" id="Layer_1" xmlns="http://www.w3.org/2000/svg" xmlns:xlink="http://www.w3.org/1999/xlink" x="0px" y="0px"
	 viewBox="0 0 343.7 283.9" style="enable-background:new 0 0 343.7 283.9;" xml:space="preserve">
<style type="text/css">
	.st0{fill:#FFFFFF;}
	.st1{clip-path:url(#SVGID_00000058551233897440654800000011206427127376736167_);}
	.st2{clip-path:url(#SVGID_00000057131420824060151100000013001600746060178342_);}
	.st3{clip-path:url(#SVGID_00000036974221965372038400000017258096480636128908_);}
	.st4{clip-path:url(#SVGID_00000103260829114230793190000012278458662058267789_);}
	.st5{fill:none;stroke:#FFFFFF;stroke-width:0.11;stroke-miterlimit:11.45;}
</style>
<g id="Football">
	<path class="st0" d="M88.7,254c0,0.9,0,1.7-0.1,2.6c-0.1,0.9-0.2,1.7-0.4,2.6s-0.4,1.7-0.6,2.5c-0.2,0.8-0.5,1.6-0.9,2.4
		c-0.3,0.8-0.7,1.6-1.1,2.4c-0.4,0.8-0.8,1.5-1.3,2.2c-0.5,0.7-1,1.4-1.5,2.1c-0.6,0.7-1.1,1.3-1.7,1.9s-1.2,1.2-1.9,1.7
		c-0.7,0.5-1.4,1.1-2.1,1.5c-0.7,0.5-1.5,0.9-2.2,1.3c-0.8,0.4-1.5,0.8-2.3,1.1s-1.6,0.6-2.4,0.9s-1.7,0.5-2.5,0.6s-1.7,0.3-2.6,0.4
		c-0.9,0.1-1.7,0.1-2.6,0.1s-1.7,0-2.6-0.1c-0.9-0.1-1.7-0.2-2.6-0.4c-0.8-0.2-1.7-0.4-2.5-0.6c-0.8-0.2-1.6-0.5-2.4-0.9
		c-0.8-0.3-1.6-0.7-2.3-1.1c-0.8-0.4-1.5-0.9-2.2-1.3c-0.7-0.5-1.4-1-2.1-1.5c-0.7-0.5-1.3-1.1-1.9-1.7s-1.2-1.3-1.7-1.9
		c-0.5-0.7-1.1-1.4-1.5-2.1c-0.5-0.7-0.9-1.5-1.3-2.2c-0.4-0.8-0.8-1.5-1.1-2.4c-0.3-0.8-0.6-1.6-0.9-2.4c-0.2-0.8-0.5-1.7-0.6-2.5
		s-0.3-1.7-0.4-2.6c-0.1-0.9-0.1-1.7-0.1-2.6c0-0.9,0-1.7,0.1-2.6s0.2-1.7,0.4-2.6s0.4-1.7,0.6-2.5c0.2-0.8,0.5-1.6,0.9-2.4
		c0.3-0.8,0.7-1.6,1.1-2.4c0.4-0.8,0.8-1.5,1.3-2.2c0.5-0.7,1-1.4,1.5-2.1c0.5-0.7,1.1-1.3,1.7-1.9c0.6-0.6,1.2-1.2,1.9-1.7
		s1.3-1.1,2.1-1.6s1.5-0.9,2.2-1.3c0.8-0.4,1.5-0.8,2.3-1.1s1.6-0.6,2.4-0.9c0.8-0.2,1.7-0.5,2.5-0.6c0.8-0.2,1.7-0.3,2.6-0.4
		c0.9-0.1,1.7-0.1,2.6-0.1s1.7,0,2.6,0.1c0.9,0.1,1.7,0.2,2.6,0.4s1.7,0.4,2.5,0.6c0.8,0.3,1.6,0.6,2.4,0.9s1.6,0.7,2.3,1.1
		c0.8,0.4,1.5,0.9,2.2,1.3c0.7,0.5,1.4,1,2.1,1.6s1.3,1.1,1.9,1.7c0.6,0.6,1.2,1.3,1.7,1.9s1.1,1.4,1.5,2.1c0.5,0.7,0.9,1.5,1.3,2.2
		c0.4,0.8,0.8,1.6,1.1,2.4s0.6,1.6,0.9,2.4s0.4,1.7,0.6,2.5c0.2,0.9,0.3,1.7,0.4,2.6C88.7,252.3,88.7,253.2,88.7,254z"/>
	<path class="st0" d="M278.3,26.2c0,0.8,0,1.6-0.1,2.4s-0.2,1.6-0.4,2.4c-0.2,0.8-0.4,1.6-0.6,2.4c-0.2,0.8-0.5,1.5-0.8,2.3
		s-0.7,1.5-1,2.2s-0.8,1.4-1.3,2.1c-0.5,0.7-0.9,1.3-1.5,2s-1.1,1.2-1.6,1.8c-0.6,0.6-1.2,1.1-1.8,1.6s-1.3,1-2,1.5
		s-1.4,0.9-2.1,1.3c-0.7,0.4-1.5,0.7-2.2,1c-0.8,0.3-1.5,0.6-2.3,0.8c-0.8,0.2-1.6,0.4-2.4,0.6c-0.8,0.2-1.6,0.3-2.4,0.4
		c-0.8,0.1-1.6,0.1-2.4,0.1s-1.6,0-2.4-0.1c-0.8-0.1-1.6-0.2-2.4-0.4c-0.8-0.2-1.6-0.3-2.4-0.6c-0.8-0.2-1.6-0.5-2.3-0.8
		c-0.8-0.3-1.5-0.7-2.2-1c-0.7-0.4-1.4-0.8-2.1-1.3s-1.3-0.9-2-1.5c-0.6-0.5-1.2-1.1-1.8-1.6s-1.1-1.2-1.6-1.8s-1-1.3-1.4-2
		s-0.9-1.4-1.3-2.1c-0.4-0.7-0.7-1.5-1-2.2c-0.3-0.8-0.6-1.5-0.8-2.3c-0.2-0.8-0.4-1.6-0.6-2.4c-0.2-0.8-0.3-1.6-0.4-2.4
		c-0.1-0.8-0.1-1.6-0.1-2.4s0-1.6,0.1-2.4c0.1-0.8,0.2-1.6,0.4-2.4s0.4-1.6,0.6-2.4c0.2-0.8,0.5-1.5,0.8-2.3c0.3-0.8,0.7-1.5,1-2.2
		c0.4-0.7,0.8-1.4,1.3-2.1s0.9-1.3,1.4-2c0.5-0.6,1.1-1.2,1.6-1.8c0.6-0.6,1.2-1.1,1.8-1.6s1.3-1,2-1.5s1.4-0.9,2.1-1.3
		c0.7-0.4,1.4-0.7,2.2-1c0.8-0.3,1.5-0.6,2.3-0.8s1.6-0.4,2.4-0.6c0.8-0.2,1.6-0.3,2.4-0.4c0.8-0.1,1.6-0.1,2.4-0.1s1.6,0,2.4,0.1
		c0.8,0.1,1.6,0.2,2.4,0.4c0.8,0.2,1.6,0.4,2.4,0.6c0.8,0.2,1.5,0.5,2.3,0.8s1.5,0.7,2.2,1c0.7,0.4,1.4,0.8,2.1,1.3s1.3,0.9,2,1.5
		s1.2,1.1,1.8,1.6c0.6,0.6,1.1,1.2,1.6,1.8s1,1.3,1.5,2s0.9,1.4,1.3,2.1s0.7,1.4,1,2.2c0.3,0.8,0.6,1.5,0.8,2.3
		c0.2,0.8,0.4,1.6,0.6,2.4c0.2,0.8,0.3,1.6,0.4,2.4C278.2,24.6,278.3,25.4,278.3,26.2z"/>
	<path class="st0" d="M82.5,48.3c31.7-3,63.4-5.6,95.2-8.2c7.8,0.1,15.8-0.8,23.3,1.2c4.9,1.3,9.8,5.4,9.6,10.8
		c-0.5,5.8-6.4,9.2-11.5,10.2c-22.1,2.8-44.2-0.7-66.2-2.7c-19.5-2.1-38.9-4.2-58.4-6.3c-3.7-0.4-7.4-0.7-11-1.6
		C69.5,49.1,76.2,49.1,82.5,48.3L82.5,48.3L82.5,48.3z"/>
	<path class="st0" d="M264.8,72.8c-1-6.4,5.6-11.2,11.3-11.3c8.2,1.3,14.3,8.2,17.9,15.3c4,9.4,7.9,19,9.4,29.2
		c0.9,6.8-0.6,14.4-5.9,19.2c-9.5,8.1-22,11.2-34,13.4c-9.9,1.3-19.9,2.8-29.9,2.8c0.3-2.8,3.4-3.6,5.6-4.6
		c15.1-5.9,30.4-12,43.2-22.1c1.1-1,3-2.2,2.2-4c-1.7-4.9-5.1-9.1-7.6-13.6C272.6,89.3,266.6,81.9,264.8,72.8L264.8,72.8z"/>
	<path class="st0" d="M174.7,114.8c5-2.2,11.2-1.9,15.6,1.6c2.6,2.2,2.5,6,1.7,9c-3.3,10.7-10.2,19.8-17.5,28.1
		c-6.9,7.6-14,15.1-21.5,22c-3.9,3.4-8,7.2-13.3,8.2c-4.8,1.3-10.1-1.4-12.1-5.8c-0.7-4.9,1.1-9.7,3.3-14.1
		c4.2-8.1,9.6-15.5,15.3-22.6C154.5,131.2,163,120.7,174.7,114.8L174.7,114.8L174.7,114.8z"/>
	<g>
		<defs>
			<rect id="SVGID_1_" x="98.8" y="133.9" width="124" height="150.1"/>
		</defs>
		<clipPath id="SVGID_00000075141149113763458700000017758403491039736247_">
			<use xlink:href="#SVGID_1_"  style="overflow:visible;"/>
		</clipPath>
		<g style="clip-path:url(#SVGID_00000075141149113763458700000017758403491039736247_);">
			<path class="st0" d="M201.9,137.2c5.8-2.9,13.9-3.3,18.8,1.5c3.3,4.2,2.3,10,0.7,14.8c-3.3,8.9-8.5,17-14.3,24.4
				c-32.1,37.3-69,70-104.5,104c-0.9,0.7-1.9,1.4-2.9,2c2.1-6.3,6.1-11.6,9.3-17.4c22.3-35.9,44.8-71.6,69.2-106.1
				C185.1,151.8,191.7,142.3,201.9,137.2L201.9,137.2L201.9,137.2z"/>
		</g>
	</g>
	<g>
		<defs>
			<rect id="SVGID_00000009571154887361211580000007560532941867529130_" y="63.2" width="129.5" height="204"/>
		</defs>
		<clipPath id="SVGID_00000173875560439949928950000002675306217024566414_">
			<use xlink:href="#SVGID_00000009571154887361211580000007560532941867529130_"  style="overflow:visible;"/>
		</clipPath>
		<g style="clip-path:url(#SVGID_00000173875560439949928950000002675306217024566414_);">
			<path class="st0" d="M55,64.7c3.6-2.7,9.1,0.5,8.8,5c0.4,25.7-0.2,51.5,0.3,77.2c19.6,0.1,39.1-0.1,58.7,0c4.1-0.6,8,3.8,6.2,7.7
				c-0.9,2.7-3.8,3.7-6.4,3.7c-20.1,0.2-40.2-0.3-60.3,0.2c-20.7,35.9-41.4,71.8-62.2,107.7v-23c16.3-28,32.3-56.1,48.6-84
				c1.6-3,4.1-5.9,3.7-9.6c0-26,0-52,0-78C52.3,69.1,52.7,66.3,55,64.7z"/>
		</g>
	</g>
	<g>
		<defs>
			<rect id="SVGID_00000051367031455426898210000004034972083421877122_" x="226.9" y="145.9" width="117" height="13.3"/>
		</defs>
		<clipPath id="SVGID_00000160904125744087959920000001558093523012935343_">
			<use xlink:href="#SVGID_00000051367031455426898210000004034972083421877122_"  style="overflow:visible;"/>
		</clipPath>
		<g style="clip-path:url(#SVGID_00000160904125744087959920000001558093523012935343_);">
			<path class="st0" d="M228.1,153.1c-0.5-3.7,3.3-6.3,6.7-6.1c36.3-0.1,72.6,0,108.9,0v11.5c-36.3,0-72.6,0-108.9,0
				C231.7,158.7,228.2,156.4,228.1,153.1L228.1,153.1z"/>
		</g>
	</g>
	<g>
		<defs>
			<rect id="SVGID_00000049905761431066259780000008011435497974857362_" x="97.5" y="132.5" width="128" height="151.4"/>
		</defs>
		<clipPath id="SVGID_00000113319661867081947130000017748316626000407977_">
			<use xlink:href="#SVGID_00000049905761431066259780000008011435497974857362_"  style="overflow:visible;"/>
		</clipPath>
		<g style="clip-path:url(#SVGID_00000113319661867081947130000017748316626000407977_);">
			<path class="st5" d="M201.9,137.2c5.8-2.9,13.9-3.3,18.8,1.5c3.3,4.2,2.3,10,0.7,14.8c-3.3,8.9-8.5,17-14.3,24.4
				c-32.1,37.3-69,70-104.5,104c-0.9,0.7-1.9,1.4-2.9,2c2.1-6.3,6.1-11.6,9.3-17.4c22.3-35.9,44.8-71.6,69.2-106.1
				C185.1,151.8,191.7,142.3,201.9,137.2L201.9,137.2L201.9,137.2z"/>
		</g>
	</g>
</g>
</svg>
