<?xml version="1.0" encoding="utf-8"?>
<!-- Generator: Adobe Illustrator 27.4.1, SVG Export Plug-In . SVG Version: 6.00 Build 0)  -->
<svg version="1.1" id="Layer_1" xmlns="http://www.w3.org/2000/svg" xmlns:xlink="http://www.w3.org/1999/xlink" x="0px" y="0px"
	 viewBox="0 0 213.9 307.9" style="enable-background:new 0 0 213.9 307.9;" xml:space="preserve">
<style type="text/css">
	.st0{clip-path:url(#SVGID_00000158004696665788388100000011311825216918731660_);}
	.st1{fill:none;stroke:#FFFFFF;stroke-width:0.1;stroke-miterlimit:10;}
	.st2{fill:#FFFFFF;}
	.st3{clip-path:url(#SVGID_00000129915860383180707390000007971900400228544163_);}
	.st4{clip-path:url(#SVGID_00000022554682939073281720000014218561291207624602_);}
	.st5{clip-path:url(#SVGID_00000075883459456558609860000012346382672768860814_);}
</style>
<g id="Golf">
	<g>
		<defs>
			<rect id="SVGID_1_" y="0" width="213.9" height="85.5"/>
		</defs>
		<clipPath id="SVGID_00000100362422279160919460000018053309095326895269_">
			<use xlink:href="#SVGID_1_"  style="overflow:visible;"/>
		</clipPath>
		<g style="clip-path:url(#SVGID_00000100362422279160919460000018053309095326895269_);">
			<path class="st1" d="M51.4,15.7c4-8.6,12.8-14.5,22.3-14.9c8.9-0.2,17.9,4.4,22.6,12.1c2.2,3,2.4,7,4.2,10.2
				c31.2,4.8,62.4,9.4,93.7,14.1c5.9-0.1,12.2,2,15.2,7.4c4.3,5.8,4.5,15.8-1.8,20.3c-2.6,2.2-6.3,0.2-8.1-2.1c-4-5.2-4.3-12-5-18.3
				c-31.6-4.7-63.2-9.5-94.8-14.2c-1.9,8.6-8.4,16.3-17,18.8c-8,2.8-17.3,1-24-4.2c-6.6-5.3-10.1-13.8-9.5-22.2
				c-9.5-1.3-19-2.9-28.5-4.2c-5.2,5-9.2,11.9-9.1,19.3c0,9.4,6.6,17.9,15,21.6c8,4.4,17.4,5.3,26.4,4.6c11.3-0.8,21.7-6.5,33.2-6.4
				c6.7,0.7,8.8,9.4,5.6,14.5c-1.3,4.5-5.8,6.3-9.9,7.7c-19.3,5.5-40.6,4.4-59-3.9c-6.8-3.3-13.5-8.2-16.7-15.3
				c-4-8.5-6.1-18.5-2.8-27.7c2.3-6.3,7-11.6,12.6-15.2c-1.6-0.4-3.3-0.9-4.9-1.4l-1.2-2.9l1.6-3c4.7-0.4,9.3,0.6,13.9,1.2
				C34,13.1,42.7,14.4,51.4,15.7L51.4,15.7z"/>
		</g>
	</g>
	<path class="st2" d="M51.4,15.7c4-8.6,12.8-14.5,22.3-14.9c8.9-0.2,17.9,4.4,22.6,12.1c2.2,3,2.4,7,4.2,10.2
		c31.2,4.8,62.4,9.4,93.7,14.1c5.9-0.1,12.2,2,15.2,7.4c4.3,5.8,4.5,15.8-1.8,20.3c-2.6,2.2-6.3,0.2-8.1-2.1c-4-5.2-4.3-12-5-18.3
		c-31.6-4.7-63.2-9.5-94.8-14.2c-1.9,8.6-8.4,16.3-17,18.8c-8,2.8-17.3,1-24-4.2c-6.6-5.3-10.1-13.8-9.5-22.2
		c-9.5-1.3-19-2.9-28.5-4.2c-5.2,5-9.2,11.9-9.1,19.3c0,9.4,6.6,17.9,15,21.6c8,4.4,17.4,5.3,26.4,4.6c11.3-0.8,21.7-6.5,33.2-6.4
		c6.7,0.7,8.8,9.4,5.6,14.5c-1.3,4.5-5.8,6.3-9.9,7.7c-19.3,5.5-40.6,4.4-59-3.9c-6.8-3.3-13.5-8.2-16.7-15.3
		c-4-8.5-6.1-18.5-2.8-27.7c2.3-6.3,7-11.6,12.6-15.2c-1.6-0.4-3.3-0.9-4.9-1.4l-1.2-2.9l1.6-3c4.7-0.4,9.3,0.6,13.9,1.2
		C34,13.1,42.7,14.4,51.4,15.7L51.4,15.7z"/>
	<g>
		<defs>
			<rect id="SVGID_00000024724700677976238150000012718716135203134364_" x="80.8" y="132.2" width="74.7" height="175.7"/>
		</defs>
		<clipPath id="SVGID_00000150789197945821079800000017365218877969703317_">
			<use xlink:href="#SVGID_00000024724700677976238150000012718716135203134364_"  style="overflow:visible;"/>
		</clipPath>
		<g style="clip-path:url(#SVGID_00000150789197945821079800000017365218877969703317_);">
			<path class="st1" d="M85.9,139.9c3.5-5.6,10.7-5.3,16.4-4.3c4.7,4.5,8.6,9.9,10.4,16.2c3.8,13.1,3.8,27,6.2,40.4
				c5.6,33.7,17.9,65.9,29,98.1c1.7,5.7,5.6,10.9,5.2,17.1c-8-8.8-14-19.1-21.3-28.4c-7.4-9.4-12.4-20.3-17.7-30.9
				c-12-25.8-22.8-52.4-29.5-80.1C83,158.8,81.1,148.5,85.9,139.9L85.9,139.9z"/>
		</g>
	</g>
	<g>
		<defs>
			<rect id="SVGID_00000024693247394652896140000003705029045165715845_" x="82.1" y="134.9" width="72" height="173"/>
		</defs>
		<clipPath id="SVGID_00000006708506127437176860000002949181857166126000_">
			<use xlink:href="#SVGID_00000024693247394652896140000003705029045165715845_"  style="overflow:visible;"/>
		</clipPath>
		<g style="clip-path:url(#SVGID_00000006708506127437176860000002949181857166126000_);">
			<path class="st2" d="M85.9,139.9c3.5-5.6,10.7-5.3,16.4-4.3c4.7,4.5,8.6,9.9,10.4,16.2c3.8,13.1,3.8,27,6.2,40.4
				c5.6,33.7,17.9,65.9,29,98.1c1.7,5.7,5.6,10.9,5.2,17.1c-8-8.8-14-19.1-21.3-28.4c-7.4-9.4-12.4-20.3-17.7-30.9
				c-12-25.8-22.8-52.4-29.5-80.1C83,158.8,81.1,148.5,85.9,139.9L85.9,139.9z"/>
		</g>
	</g>
	<g>
		<defs>
			<rect id="SVGID_00000173872287870977765100000014055987355771292078_" x="31.4" y="140.2" width="52" height="167.7"/>
		</defs>
		<clipPath id="SVGID_00000056412298647250373570000005651077121274214809_">
			<use xlink:href="#SVGID_00000173872287870977765100000014055987355771292078_"  style="overflow:visible;"/>
		</clipPath>
		<g style="clip-path:url(#SVGID_00000056412298647250373570000005651077121274214809_);">
			<path class="st1" d="M52.1,156.8c4.3-7.6,11.9-13.2,20.5-14.7c3.8,1.4,7.5,4.3,7.9,8.7c2.7,14.5-4.4,28.3-11.1,40.7
				C57.6,213,51.7,237,45.8,260.7c-3.6,15.3-6.3,30.8-10.2,46c-1.2-1.4-2.3-3-2-5c0-13.5,0.4-27,0.2-40.4c0.8-22.4,3-44.9,7-67
				C43.6,181.6,45.6,168.3,52.1,156.8L52.1,156.8z"/>
		</g>
	</g>
	<path class="st2" d="M52.1,156.8c4.3-7.6,11.9-13.2,20.5-14.7c3.8,1.4,7.5,4.3,7.9,8.7c2.7,14.5-4.4,28.3-11.1,40.7
		C57.6,213,51.7,237,45.8,260.7c-3.6,15.3-6.3,30.8-10.2,46c-1.2-1.4-2.3-3-2-5c0-13.5,0.4-27,0.2-40.4c0.8-22.4,3-44.9,7-67
		C43.6,181.6,45.6,168.3,52.1,156.8L52.1,156.8z"/>
	<path class="st2" d="M91.7,288.1c4.8,0,8.6,3.9,8.6,8.6s-3.8,8.6-8.6,8.6s-8.6-3.9-8.6-8.6S87,288.1,91.7,288.1 M91.7,295
		c-0.9,0-1.7,0.8-1.7,1.7s0.8,1.7,1.7,1.7s1.7-0.8,1.7-1.7S92.7,295,91.7,295z"/>
</g>
</svg>
