<?xml version="1.0" encoding="utf-8"?>
<!-- Generator: Adobe Illustrator 27.4.1, SVG Export Plug-In . SVG Version: 6.00 Build 0)  -->
<svg version="1.1" id="Layer_1" xmlns="http://www.w3.org/2000/svg" xmlns:xlink="http://www.w3.org/1999/xlink" x="0px" y="0px"
	 viewBox="0 0 304.5 333.8" style="enable-background:new 0 0 304.5 333.8;" xml:space="preserve">
<style type="text/css">
	.st0{fill:#FFFFFF;}
	.st1{clip-path:url(#SVGID_00000150063685922908022130000013823530098013075608_);}
	.st2{clip-path:url(#SVGID_00000014610484073273634400000016323665445060748987_);}
	.st3{clip-path:url(#SVGID_00000139979128137602253830000009742662240445786766_);}
</style>
<g id="Netball">
	<path class="st0" d="M262.8,6.5c-13.7,0-24.8,11.1-24.8,24.7S249.2,56,262.8,56s24.7-11.1,24.7-24.8S276.5,6.5,262.8,6.5z M263,13
		c10,0,18.1,8.1,18.1,18.1s-8.1,18-18.1,18s-18-8.1-18-18S253,13,263,13z"/>
	<path class="st0" d="M142.4,54.6c0,0.8,0,1.7-0.1,2.5c-0.1,0.8-0.2,1.7-0.4,2.5c-0.2,0.8-0.4,1.6-0.6,2.4c-0.2,0.8-0.5,1.6-0.8,2.4
		c-0.3,0.8-0.7,1.5-1.1,2.3c-0.4,0.7-0.8,1.4-1.3,2.2c-0.5,0.7-1,1.4-1.5,2s-1.1,1.3-1.7,1.8c-0.6,0.6-1.2,1.2-1.9,1.7s-1.3,1-2,1.5
		c-0.7,0.5-1.4,0.9-2.1,1.3c-0.7,0.4-1.5,0.8-2.3,1.1c-0.8,0.3-1.6,0.6-2.4,0.8s-1.6,0.4-2.4,0.6s-1.6,0.3-2.5,0.4s-1.7,0.1-2.5,0.1
		s-1.7,0-2.5-0.1c-0.8-0.1-1.7-0.2-2.5-0.4c-0.8-0.2-1.6-0.4-2.4-0.6c-0.8-0.2-1.6-0.5-2.3-0.8c-0.8-0.3-1.5-0.7-2.3-1.1
		c-0.7-0.4-1.4-0.8-2.2-1.3c-0.7-0.5-1.4-1-2-1.5s-1.3-1.1-1.8-1.7c-0.6-0.6-1.2-1.2-1.7-1.8s-1-1.3-1.5-2c-0.5-0.7-0.9-1.4-1.3-2.2
		s-0.8-1.5-1.1-2.3c-0.3-0.8-0.6-1.6-0.8-2.4s-0.4-1.6-0.6-2.4s-0.3-1.7-0.4-2.5c-0.1-0.8-0.1-1.7-0.1-2.5s0-1.7,0.1-2.5
		s0.2-1.7,0.4-2.5c0.2-0.8,0.4-1.6,0.6-2.4c0.2-0.8,0.5-1.6,0.8-2.3c0.3-0.8,0.7-1.5,1.1-2.3c0.4-0.7,0.8-1.5,1.3-2.2
		c0.5-0.7,1-1.4,1.5-2s1.1-1.3,1.7-1.9s1.2-1.2,1.8-1.7c0.7-0.5,1.3-1,2-1.5c0.7-0.5,1.4-0.9,2.2-1.3c0.7-0.4,1.5-0.8,2.3-1.1
		c0.8-0.3,1.6-0.6,2.3-0.8c0.8-0.2,1.6-0.5,2.4-0.6c0.8-0.2,1.7-0.3,2.5-0.4c0.8-0.1,1.7-0.1,2.5-0.1s1.7,0,2.5,0.1s1.7,0.2,2.5,0.4
		c0.8,0.2,1.6,0.4,2.4,0.6c0.8,0.2,1.6,0.5,2.4,0.8c0.8,0.3,1.5,0.7,2.3,1.1c0.7,0.4,1.4,0.8,2.1,1.3c0.7,0.5,1.4,1,2,1.5
		c0.6,0.5,1.3,1.1,1.9,1.7s1.1,1.2,1.7,1.9s1,1.3,1.5,2c0.5,0.7,0.9,1.4,1.3,2.2c0.4,0.7,0.8,1.5,1.1,2.3c0.3,0.8,0.6,1.6,0.8,2.3
		c0.2,0.8,0.4,1.6,0.6,2.4c0.2,0.8,0.3,1.7,0.4,2.5C142.4,52.9,142.4,53.8,142.4,54.6z"/>
	<g>
		<defs>
			<rect id="SVGID_1_" x="150.8" y="0" width="93.3" height="91.1"/>
		</defs>
		<clipPath id="SVGID_00000040572541202431771590000004815240687240548259_">
			<use xlink:href="#SVGID_1_"  style="overflow:visible;"/>
		</clipPath>
		<g style="clip-path:url(#SVGID_00000040572541202431771590000004815240687240548259_);">
			<path class="st0" d="M169.1,59.4C197.2,43.8,220.5,21.5,244,0c-6.3,13.9-13.4,27.7-23.3,39.4c-15.4,18.7-31.5,38-53.2,49.5
				c-6.9,4.3-18-1.6-16.2-10.3C152.1,68.9,161.9,64,169.1,59.4L169.1,59.4L169.1,59.4z"/>
		</g>
	</g>
	<path class="st0" d="M112.7,184.2c8.1-2.4,14.7,7,13.3,14.4c-0.3,22.4-12.6,42.2-22.8,61.3c-15.6,24.6-29.1,50.6-46.6,73.9
		c5.2-20,12-39.5,17-59.6c6.7-26,12.6-52.7,24.8-76.8C101.3,191.6,105.5,184.8,112.7,184.2L112.7,184.2z"/>
	<path class="st0" d="M167.2,140.5c5.1-2,11.5-1.5,15,3.1c5.1,6.9,5.8,16.1,5.7,24.4c-4.6,36.8-28.1,67.2-51.5,94.4
		c5.9-17.6,15.8-33.9,19.6-52.2c1.7-7.2,2.5-14.6,3.6-22c-3.2,3.1-5.9,6.7-9.8,8.9c-5.5,2.1-11.4-1.3-13.3-6.6
		c-3.6-7.3-1.8-15.8,1.2-22.9C143.8,155.5,153.9,144.5,167.2,140.5L167.2,140.5z"/>
	<g>
		<defs>
			<rect id="SVGID_00000059995955032287515280000017005380897883944628_" x="0.6" y="95.2" width="98.2" height="97.3"/>
		</defs>
		<clipPath id="SVGID_00000042719169007841101800000003696146559849906084_">
			<use xlink:href="#SVGID_00000059995955032287515280000017005380897883944628_"  style="overflow:visible;"/>
		</clipPath>
		<g style="clip-path:url(#SVGID_00000042719169007841101800000003696146559849906084_);">
			<path class="st0" d="M57.2,112.5c8.8-7.5,18.4-16.8,30.8-16.5c6.4-0.4,11.8,6.8,9.5,12.8c-1.4,5.4-6.9,7.9-10.9,11.2
				c-18.7,12.5-38.2,24.4-54.3,40.2c-10.7,10.3-19.2,22.9-31.5,31.6C12.7,161.3,33.3,134.6,57.2,112.5L57.2,112.5z"/>
		</g>
	</g>
	<g>
		<defs>
			<rect id="SVGID_00000064328893400167462970000003411729389925118136_" x="233.4" y="57.8" width="71" height="54.7"/>
		</defs>
		<clipPath id="SVGID_00000125582113561908555650000015346777452978066062_">
			<use xlink:href="#SVGID_00000064328893400167462970000003411729389925118136_"  style="overflow:visible;"/>
		</clipPath>
		<g style="clip-path:url(#SVGID_00000125582113561908555650000015346777452978066062_);">
			<path class="st0" d="M233.7,60c23.4-1.6,47-1.5,70.5-0.2c-1.7,8.2-4.4,16.2-6.2,24.4c-1.7,8.9-2.3,17.9-4,26.8l-5.8-0.2
				c-0.7-15.3,2.5-30.3,6.8-44.9c-17.4-0.2-34.7-0.1-52.1-0.1c3.9,13.5,6.9,27.4,6.6,41.6c0.3,3-3.7,3.2-5.5,4.5
				c-1.6-10.7-2.1-21.6-5-32.1C237.2,73.3,234.6,66.8,233.7,60L233.7,60L233.7,60z"/>
		</g>
	</g>
</g>
</svg>
