<?xml version="1.0" encoding="utf-8"?>
<!-- Generator: Adobe Illustrator 27.4.1, SVG Export Plug-In . SVG Version: 6.00 Build 0)  -->
<svg version="1.1" id="Layer_1" xmlns="http://www.w3.org/2000/svg" xmlns:xlink="http://www.w3.org/1999/xlink" x="0px" y="0px"
	 viewBox="0 0 1475.6 1139.8" style="enable-background:new 0 0 1475.6 1139.8;" xml:space="preserve">
<style type="text/css">
	.st0{fill:#FFFFFF;}
	.st1{clip-path:url(#SVGID_00000072988917655237492680000013597051715309399480_);}
	.st2{fill:#161F48;}
	.st3{clip-path:url(#SVGID_00000097476287280651248860000011719565325748703123_);}
	.st4{fill:none;stroke:#010101;stroke-width:0.1;stroke-miterlimit:10;}
	.st5{fill:none;stroke:#FFFFFF;stroke-width:0.1;stroke-miterlimit:10;}
	.st6{clip-path:url(#SVGID_00000038403611446115978790000003853649959955248800_);}
	.st7{clip-path:url(#SVGID_00000072265966110090821980000013502864459297789320_);}
	.st8{clip-path:url(#SVGID_00000067218674677352828520000006195430671701725108_);}
	.st9{clip-path:url(#SVGID_00000143595697382395168800000013966355354627599037_);}
	.st10{clip-path:url(#SVGID_00000181771070707218280710000000507687133838730662_);}
	.st11{clip-path:url(#SVGID_00000165947311582988775050000001347733235468849842_);}
	.st12{clip-path:url(#SVGID_00000132778350102865368250000005541400552789198216_);}
	.st13{clip-path:url(#SVGID_00000170963485870814612790000009848673170123971498_);}
	.st14{clip-path:url(#SVGID_00000125585301711309819830000000478023225007326108_);}
	.st15{fill:#EDBF1C;}
	.st16{clip-path:url(#SVGID_00000144324877791587954070000003471113315887264185_);}
	.st17{clip-path:url(#SVGID_00000129202373409034965630000017890345572969912254_);}
	.st18{clip-path:url(#SVGID_00000006699280934971579190000004108091053942362272_);}
	.st19{clip-path:url(#SVGID_00000066477165613376734130000005708172260041222045_);}
	.st20{clip-path:url(#SVGID_00000010284549106617386390000017719952867090379397_);}
	.st21{clip-path:url(#SVGID_00000129202414009567095130000005389162249854470073_);}
	.st22{clip-path:url(#SVGID_00000143582639265119928000000017597777319383477130_);}
	.st23{clip-path:url(#SVGID_00000103955530375992794480000000077761593079063684_);}
	.st24{fill:none;stroke:#FFFFFF;stroke-width:7.000000e-02;stroke-miterlimit:7.09;}
	.st25{clip-path:url(#SVGID_00000180328667204270214000000010446629302038484130_);}
	.st26{fill:none;}
	.st27{fill:#1B1E43;}
	.st28{fill:#EDBE1C;}
	.st29{enable-background:new    ;}
	.st30{fill:#231F20;}
	.st31{fill:none;stroke:#FFFFFF;stroke-width:50;stroke-miterlimit:10;}
	.st32{fill:#F4C316;}
</style>
<g id="Logo_V1.2">
	<g>
		<path class="st0" d="M1057.9,912.9c-18.6,0-36.5-7.8-49.2-21.3s-19.3-31.9-18.2-50.5l38.9-618.7c2.2-35.5,31.8-63.4,67.3-63.4
			c5.3,0,10.6,0.6,15.8,1.9l256.5,61.4c33.8,8.1,55.8,40.2,51.2,74.6l-74,557.3c-4.4,33.4-33.2,58.7-67,58.7L1057.9,912.9
			L1057.9,912.9z"/>
		<g id="Softball">
			<g>
				<g>
					<defs>
						<path id="SVGID_1_" d="M1047,223.5l-38.9,618.7c-1.8,28.7,21,52.9,49.7,52.9h221.4c25,0,46.1-18.5,49.4-43.2L1349,698l0.9-7.2
							l9-67.8l0.7-5.2l42.9-323.3c3.4-25.3-12.9-49-37.8-55l-256.5-61.4C1078.2,171,1048.9,192.7,1047,223.5L1047,223.5z"/>
					</defs>
					<clipPath id="SVGID_00000143592447650696409880000013302499435362333344_">
						<use xlink:href="#SVGID_1_"  style="overflow:visible;"/>
					</clipPath>
					<g style="clip-path:url(#SVGID_00000143592447650696409880000013302499435362333344_);">
						<path class="st2" d="M1057.9,912.9c-18.6,0-36.5-7.8-49.2-21.3s-19.3-31.9-18.2-50.5l38.9-618.7c2.2-35.5,31.8-63.4,67.3-63.4
							c5.3,0,10.6,0.6,15.8,1.9l256.5,61.4c33.8,8.1,55.8,40.2,51.2,74.6l-74,557.3c-4.4,33.4-33.2,58.7-67,58.7L1057.9,912.9
							L1057.9,912.9z"/>
						<path class="st2" d="M1047,223.5l-38.9,618.7c-1.8,28.7,21,52.9,49.7,52.9h221.4c25,0,46.1-18.5,49.4-43.2l74-557.3
							c3.4-25.3-12.9-49-37.8-55l-256.5-61.4C1078.2,171,1048.9,192.7,1047,223.5L1047,223.5z"/>
						<g>
							<g>
								<g>
									<defs>
										
											<rect id="SVGID_00000143611723218888767910000018371165273278793135_" x="1071.8" y="239.5" width="256.1" height="167.9"/>
									</defs>
									<clipPath id="SVGID_00000129913026970615100640000007800428651674310845_">
										<use xlink:href="#SVGID_00000143611723218888767910000018371165273278793135_"  style="overflow:visible;"/>
									</clipPath>
									<g style="clip-path:url(#SVGID_00000129913026970615100640000007800428651674310845_);">
										<path class="st4" d="M1089,316.7c68.7-24.5,137.2-49.5,205.9-74c6.1-3.2,12.9,2.3,12.2,8.8c-0.2,5-5.4,6.8-9.3,8.2
											c-63.2,22.6-126.3,45.6-189.6,68.1c30.1,28.2,71.7,40.3,112,43.6c28.4,2.8,56.3-4.4,83.2-12.5c3.9-1.3,8.6-2.3,12.1,0.3
											c10.6,7.5,10.1,27.2-2.4,32.6c-22.5,10.8-48.1,11.9-72.6,10.4c-32.2-3.1-63.4-13.2-91.9-28.3
											c-18.8-10.4-36.5-24.3-46.7-43.6c-7.6,2.5-14.8,6.3-22.9,6.6c-4-2.5-6.9-7.5-4.8-12.1C1077.3,319.5,1084,319.1,1089,316.7
											L1089,316.7z"/>
									</g>
								</g>
							</g>
							<path class="st0" d="M1089,316.7c68.7-24.5,137.2-49.5,205.9-74c6.1-3.2,12.9,2.3,12.2,8.8c-0.2,5-5.4,6.8-9.3,8.2
								c-63.2,22.6-126.3,45.6-189.6,68.1c30.1,28.2,71.7,40.3,112,43.6c28.4,2.8,56.3-4.4,83.2-12.5c3.9-1.3,8.6-2.3,12.1,0.3
								c10.6,7.5,10.1,27.2-2.4,32.6c-22.5,10.8-48.1,11.9-72.6,10.4c-32.2-3.1-63.4-13.2-91.9-28.3c-18.8-10.4-36.5-24.3-46.7-43.6
								c-7.6,2.5-14.8,6.3-22.9,6.6c-4-2.5-6.9-7.5-4.8-12.1C1077.3,319.5,1084,319.1,1089,316.7L1089,316.7z"/>
							<path class="st5" d="M1231.5,290.2c12.4-1.4,25.4,3.4,33.7,12.8c5.6,6.9,9.4,15.7,9.4,24.7c-1.1,11.1-6.6,22-15.9,28.3
								c-11,7.8-26,9.3-38.3,3.8c-17.9-7.1-28.3-30.3-19.1-47.9C1206.5,299.9,1218.7,292,1231.5,290.2L1231.5,290.2z"/>
							<path class="st0" d="M1231.5,290.2c12.4-1.4,25.4,3.4,33.7,12.8c5.6,6.9,9.4,15.7,9.4,24.7c-1.1,11.1-6.6,22-15.9,28.3
								c-11,7.8-26,9.3-38.3,3.8c-17.9-7.1-28.3-30.3-19.1-47.9C1206.5,299.9,1218.7,292,1231.5,290.2L1231.5,290.2z"/>
							<g>
								<g>
									<defs>
										
											<rect id="SVGID_00000117640604475922465540000000428673120887961777_" x="1299.2" y="474.4" width="121.6" height="267.1"/>
									</defs>
									<clipPath id="SVGID_00000109717965315492288540000012251781532740232873_">
										<use xlink:href="#SVGID_00000117640604475922465540000000428673120887961777_"  style="overflow:visible;"/>
									</clipPath>
									<g style="clip-path:url(#SVGID_00000109717965315492288540000012251781532740232873_);">
										<path class="st5" d="M1313.9,479.1c6.3-3.1,13.4-1.3,20.1-0.9c11.8,9.2,18.6,23.2,21.2,37.6c4.2,24.3,5.6,49.2,12.3,73.1
											c6.2,24.8,15.2,48.7,23.7,72.8c9.8,24.3,18.6,49,29,73c0,1,0,3.1,0,4.2c-2-1.2-3.8-2.6-5.1-4.5
											c-12.6-15.7-25.3-31.3-37.9-47c-16.1-22.8-28.2-48.1-40.4-73.2c-11.6-25.6-22.6-51.5-30.2-78.6
											c-4.2-12.9-6.3-26.7-4.3-40.2C1303.2,488.5,1307.3,481.7,1313.9,479.1L1313.9,479.1z"/>
									</g>
								</g>
							</g>
							<path class="st0" d="M1313.9,479.1c6.3-3.1,13.4-1.3,20.1-0.9c11.8,9.2,18.6,23.2,21.2,37.6c4.2,24.3,5.6,49.2,12.3,73.1
								c6.2,24.8,15.2,48.7,23.7,72.8c9.8,24.3,18.6,49,29,73c0,1,0,3.1,0,4.2c-2-1.2-3.8-2.6-5.1-4.5c-12.6-15.7-25.3-31.3-37.9-47
								c-16.1-22.8-28.2-48.1-40.4-73.2c-11.6-25.6-22.6-51.5-30.2-78.6c-4.2-12.9-6.3-26.7-4.3-40.2
								C1303.2,488.5,1307.3,481.7,1313.9,479.1L1313.9,479.1z"/>
							<g>
								<g>
									<defs>
										
											<rect id="SVGID_00000007401088657786317170000015379030297677129369_" x="1181.2" y="496.7" width="111.6" height="244.8"/>
									</defs>
									<clipPath id="SVGID_00000139982337532819240160000003583454999520375701_">
										<use xlink:href="#SVGID_00000007401088657786317170000015379030297677129369_"  style="overflow:visible;"/>
									</clipPath>
									<g style="clip-path:url(#SVGID_00000139982337532819240160000003583454999520375701_);">
										<path class="st5" d="M1263.9,503.5c6.9-2.2,15.9-5.2,21.7,1.1c7.3,8.4,4.1,20.3,1.8,29.9c-4.8,15.8-15.2,29-24.8,42.2
											c-22.6,30-36.3,65.4-50.5,99.9c-8.1,21.5-15.3,43.4-24.1,64.7c-4.5-1.6-1.8-7-1.9-10.3c4.2-26.8,6.7-53.8,12.4-80.3
											c7.2-36.9,17.6-73.2,31.8-107.9C1237.1,526.8,1247,510.2,1263.9,503.5L1263.9,503.5z"/>
									</g>
								</g>
							</g>
							<g>
								<g>
									<defs>
										
											<rect id="SVGID_00000145763539983043219780000014248742485761107870_" x="1184.4" y="499.9" width="108.4" height="241.6"/>
									</defs>
									<clipPath id="SVGID_00000093165494306672530070000011153223018304649629_">
										<use xlink:href="#SVGID_00000145763539983043219780000014248742485761107870_"  style="overflow:visible;"/>
									</clipPath>
									<g style="clip-path:url(#SVGID_00000093165494306672530070000011153223018304649629_);">
										<path class="st0" d="M1263.9,503.5c6.9-2.2,15.9-5.2,21.7,1.1c7.3,8.4,4.1,20.3,1.8,29.9c-4.8,15.8-15.2,29-24.8,42.2
											c-22.6,30-36.3,65.4-50.5,99.9c-8.1,21.5-15.3,43.4-24.1,64.7c-4.5-1.6-1.8-7-1.9-10.3c4.2-26.8,6.7-53.8,12.4-80.3
											c7.2-36.9,17.6-73.2,31.8-107.9C1237.1,526.8,1247,510.2,1263.9,503.5L1263.9,503.5z"/>
									</g>
								</g>
							</g>
						</g>
					</g>
				</g>
			</g>
		</g>
		<polygon class="st0" points="1362.8,576.5 1368.8,579.5 1356.8,656.5 1351.8,636.5 		"/>
		<path class="st0" d="M188.8,980.9c-34.9,0-63.9-26.2-67.5-60.9L55.1,275.8c-3.6-35.4,21-67.8,56-73.8l365.2-62.8
			c3.8-0.7,7.7-1,11.6-1c17.6,0,34.4,6.8,47.1,19.1c12.9,12.5,20.2,29.3,20.6,47.3l14.9,707.1c0.4,18.4-6.5,35.8-19.4,48.9
			S521,981,502.6,981L188.8,980.9L188.8,980.9z"/>
		<g id="Netball">
			<g>
				<g>
					<defs>
						<path id="SVGID_00000031173931376905140740000003139928944457275567_" d="M72.8,273.9L139,918.1c2.6,25.6,24.1,45,49.8,45
							h313.9c28.1,0,50.7-23.1,50.1-51.2l-14.9-707.1c-0.6-30.6-28.4-53.5-58.6-48.3l-365.2,62.8C88.2,223.9,70.1,247.7,72.8,273.9
							L72.8,273.9z"/>
					</defs>
					<clipPath id="SVGID_00000005255895936650542370000011562806833974665146_">
						<use xlink:href="#SVGID_00000031173931376905140740000003139928944457275567_"  style="overflow:visible;"/>
					</clipPath>
					<g style="clip-path:url(#SVGID_00000005255895936650542370000011562806833974665146_);">
						<path class="st2" d="M72.8,273.9L139,918.1c2.6,25.6,24.1,45,49.8,45h313.9c28.1,0,50.7-23.1,50.1-51.2l-14.9-707.1
							c-0.6-30.6-28.4-53.5-58.6-48.3l-365.2,62.8C88.2,223.9,70.1,247.7,72.8,273.9L72.8,273.9z"/>
						<g>
							<path class="st0" d="M505.1,186.5c-19.9,0-36.1,16.1-36.1,36s16.2,36.1,36.1,36.1s36-16.2,36-36.1S525,186.5,505.1,186.5z
								 M505.3,196c14.5,0,26.3,11.8,26.3,26.3s-11.8,26.3-26.3,26.3S479,236.9,479,222.3S490.8,196,505.3,196z"/>
							<path class="st0" d="M314.6,256.7c0,2.4-0.2,4.9-0.7,7.2c-0.5,2.4-1.2,4.7-2.1,7s-2.1,4.4-3.4,6.4c-1.4,2-2.9,3.9-4.6,5.6
								s-3.6,3.3-5.6,4.6c-2,1.3-4.2,2.5-6.4,3.4c-2.3,0.9-4.6,1.6-7,2.1s-4.8,0.7-7.3,0.7s-4.9-0.2-7.2-0.7s-4.7-1.2-7-2.1
								c-2.3-0.9-4.4-2.1-6.4-3.4c-2-1.4-3.9-2.9-5.6-4.6s-3.3-3.6-4.6-5.6c-1.4-2-2.5-4.2-3.4-6.4s-1.6-4.6-2.1-7
								c-0.5-2.4-0.7-4.8-0.7-7.2c0-2.4,0.2-4.9,0.7-7.2c0.5-2.4,1.2-4.7,2.1-7s2.1-4.4,3.4-6.4c1.4-2,2.9-3.9,4.6-5.6
								s3.6-3.3,5.6-4.6c2-1.4,4.2-2.5,6.4-3.4c2.3-0.9,4.6-1.6,7-2.1s4.8-0.7,7.2-0.7s4.9,0.2,7.3,0.7s4.7,1.2,7,2.1
								s4.4,2.1,6.4,3.4c2,1.4,3.9,2.9,5.6,4.6s3.3,3.6,4.6,5.6c1.4,2,2.5,4.2,3.4,6.4c0.9,2.2,1.6,4.6,2.1,7
								C314.4,251.8,314.6,254.2,314.6,256.7z"/>
							<g>
								<g>
									<defs>
										
											<rect id="SVGID_00000114792089873618074400000005214966522185662363_" x="326.7" y="177.2" width="138.1" height="131.5"/>
									</defs>
									<clipPath id="SVGID_00000050643205975537602400000007673530115811235730_">
										<use xlink:href="#SVGID_00000114792089873618074400000005214966522185662363_"  style="overflow:visible;"/>
									</clipPath>
									<g style="clip-path:url(#SVGID_00000050643205975537602400000007673530115811235730_);">
										<path class="st0" d="M353.4,263.6c41-22.6,75-55.1,109.2-86.5c-9.1,20.3-19.5,40.3-34,57.4
											c-22.4,27.2-45.9,55.4-77.5,72.1c-10.1,6.3-26.3-2.3-23.6-15C328.6,277.5,343,270.4,353.4,263.6L353.4,263.6z"/>
									</g>
								</g>
							</g>
							<g>
								<g>
									<defs>
										
											<rect id="SVGID_00000183251175321692044110000003261895194873271985_" x="188.6" y="443.6" width="102.8" height="219.9"/>
									</defs>
									<clipPath id="SVGID_00000122695493141773303150000008013562458389749927_">
										<use xlink:href="#SVGID_00000183251175321692044110000003261895194873271985_"  style="overflow:visible;"/>
									</clipPath>
									<g style="clip-path:url(#SVGID_00000122695493141773303150000008013562458389749927_);">
										<path class="st0" d="M271.2,445.4c11.8-3.5,21.5,10.2,19.3,21c-0.5,32.5-18.4,61.5-33.2,89.4
											c-22.7,35.8-42.4,73.7-67.9,107.6c7.5-29.1,17.5-57.6,24.8-86.8c9.8-37.9,18.4-76.7,36.1-111.9
											C254.6,456.2,260.8,446.3,271.2,445.4L271.2,445.4z"/>
									</g>
								</g>
							</g>
							<path class="st0" d="M350.7,381.7c7.4-3,16.8-2.2,21.8,4.5c7.5,10,8.5,23.4,8.2,35.5c-6.7,53.5-40.9,97.8-75,137.5
								c8.6-25.7,23.1-49.3,28.6-76.1c2.5-10.5,3.7-21.3,5.3-32c-4.6,4.4-8.7,9.8-14.3,13c-8,3.1-16.7-1.9-19.3-9.6
								c-5.3-10.6-2.6-23,1.8-33.4C316.6,403.5,331.4,387.5,350.7,381.7L350.7,381.7L350.7,381.7z"/>
							<g>
								<g>
									<defs>
										<rect id="SVGID_00000037695092457629543550000013597292785148123836_" x="107.8" y="315.1" width="145" height="144.5"/>
									</defs>
									<clipPath id="SVGID_00000036973696496535013760000004200794187576677274_">
										<use xlink:href="#SVGID_00000037695092457629543550000013597292785148123836_"  style="overflow:visible;"/>
									</clipPath>
									<g style="clip-path:url(#SVGID_00000036973696496535013760000004200794187576677274_);">
										<path class="st0" d="M190.4,341c12.9-11,26.8-24.5,44.9-24.1c9.4-0.7,17.2,10,13.9,18.7c-2,7.9-10.1,11.5-15.9,16.3
											c-27.3,18.3-55.6,35.5-79.2,58.6c-15.6,15-28,33.4-45.9,46.1C125.4,412.1,155.5,373.2,190.4,341L190.4,341z"/>
									</g>
								</g>
							</g>
							<g>
								<g>
									<defs>
										<rect id="SVGID_00000114757880214938027350000002668501845863297716_" x="460.5" y="260.5" width="105.3" height="80.3"/>
									</defs>
									<clipPath id="SVGID_00000113328442999367404430000005305204514589427388_">
										<use xlink:href="#SVGID_00000114757880214938027350000002668501845863297716_"  style="overflow:visible;"/>
									</clipPath>
									<g style="clip-path:url(#SVGID_00000113328442999367404430000005305204514589427388_);">
										<path class="st0" d="M462.6,264.5c34.2-2.3,68.6-2.2,102.8-0.2c-2.4,12-6.4,23.6-9,35.5c-2.4,12.9-3.4,26.1-5.9,39
											l-8.5-0.2c-1-22.2,3.6-44.1,9.9-65.4c-25.3-0.2-50.6-0.2-75.9-0.2c5.7,19.7,10.1,39.9,9.7,60.5c0.4,4.4-5.3,4.6-8,6.6
											c-2.3-15.6-3-31.5-7.3-46.7C467.8,283.8,463.9,274.5,462.6,264.5L462.6,264.5L462.6,264.5z"/>
									</g>
								</g>
							</g>
						</g>
					</g>
				</g>
			</g>
		</g>
		<path class="st0" d="M623.3,980.9c-17.7,0-34.4-6.8-47.1-19.2c-12.7-12.4-19.9-28.9-20.3-46.7l-18.7-797.2
			c-0.8-34.6,24.5-64.1,58.9-68.5L978.7,0.6c2.9-0.4,5.8-0.6,8.6-0.6c18.5,0,36.4,7.8,49.1,21.4c12.9,13.8,19.3,31.7,18,50.5
			l-55.7,845.9c-2.3,35.3-31.9,63-67.3,63L623.3,980.9L623.3,980.9z"/>
		<g id="Football">
			<g>
				<g>
					<defs>
						<path id="SVGID_00000031888471518410219640000008149413280022234525_" d="M554.9,117.4l18.7,797.2c0.6,27,22.7,48.5,49.6,48.5
							h308.2c26.2,0,47.8-20.3,49.6-46.4l55.7-846c2.1-31.2-24.8-56.5-55.8-52.5L598.3,66.9C573,70.2,554.3,92,554.9,117.4
							L554.9,117.4z"/>
					</defs>
					<clipPath id="SVGID_00000145060645678896583960000009759450084112561325_">
						<use xlink:href="#SVGID_00000031888471518410219640000008149413280022234525_"  style="overflow:visible;"/>
					</clipPath>
					<g style="clip-path:url(#SVGID_00000145060645678896583960000009759450084112561325_);">
						<g>
							<path class="st15" d="M682,441.8c0,2.5-0.2,4.9-0.7,7.3c-0.5,2.4-1.2,4.8-2.1,7.1c-0.9,2.3-2.1,4.5-3.4,6.5s-2.9,4-4.6,5.7
								c-1.7,1.8-3.6,3.3-5.7,4.7s-4.2,2.5-6.5,3.5c-2.3,0.9-4.6,1.7-7,2.1c-2.4,0.5-4.9,0.7-7.3,0.7s-4.9-0.2-7.3-0.7
								c-2.4-0.5-4.8-1.2-7-2.1c-2.3-0.9-4.4-2.1-6.5-3.5c-2-1.4-4-2.9-5.7-4.7s-3.3-3.7-4.6-5.7s-2.5-4.2-3.4-6.5s-1.6-4.6-2.1-7.1
								c-0.5-2.4-0.7-4.9-0.7-7.3c0-2.5,0.2-4.9,0.7-7.3c0.5-2.4,1.2-4.8,2.1-7.1c0.9-2.3,2.1-4.5,3.4-6.5s2.9-4,4.6-5.7
								c1.7-1.8,3.6-3.3,5.7-4.7s4.2-2.5,6.5-3.5c2.3-0.9,4.6-1.7,7-2.1c2.4-0.5,4.9-0.7,7.3-0.7s4.9,0.2,7.3,0.7
								c2.4,0.5,4.8,1.2,7,2.1c2.3,0.9,4.4,2.1,6.5,3.5c2,1.4,4,2.9,5.7,4.7s3.3,3.7,4.6,5.7s2.5,4.2,3.4,6.5s1.6,4.6,2.1,7.1
								C681.8,436.9,682,439.4,682,441.8z"/>
							<path class="st15" d="M951.4,117.7c0,2.3-0.2,4.6-0.7,6.9c-0.4,2.3-1.1,4.5-2,6.6s-2,4.2-3.3,6.1s-2.8,3.7-4.4,5.4
								c-1.7,1.6-3.4,3.1-5.4,4.4c-1.9,1.3-4,2.4-6.1,3.3s-4.3,1.5-6.6,2s-4.6,0.7-6.9,0.7s-4.6-0.2-6.9-0.7c-2.3-0.5-4.5-1.1-6.6-2
								s-4.2-2-6.1-3.3c-1.9-1.3-3.7-2.8-5.4-4.4c-1.6-1.6-3.1-3.4-4.4-5.4c-1.3-1.9-2.4-4-3.3-6.1s-1.6-4.4-2-6.6
								c-0.5-2.3-0.7-4.6-0.7-6.9s0.2-4.6,0.7-6.9c0.4-2.3,1.1-4.5,2-6.6s2-4.2,3.3-6.1s2.8-3.7,4.4-5.4c1.6-1.6,3.4-3.1,5.4-4.4
								c1.9-1.3,4-2.4,6.1-3.3c2.2-0.9,4.3-1.5,6.6-2s4.6-0.7,6.9-0.7s4.6,0.2,6.9,0.7c2.3,0.5,4.5,1.1,6.6,2c2.2,0.9,4.2,2,6.1,3.3
								s3.7,2.8,5.4,4.4c1.6,1.6,3.1,3.4,4.4,5.4c1.3,1.9,2.4,4,3.3,6.1s1.6,4.4,2,6.6C951.2,113,951.4,115.4,951.4,117.7z"/>
							<path class="st15" d="M673.2,149.1c45.1-4.3,90.2-8,135.3-11.6c11,0.1,22.4-1.2,33.2,1.8c6.9,1.8,13.9,7.7,13.6,15.4
								c-0.7,8.2-9,13.1-16.4,14.5c-31.4,4-62.8-0.9-94.1-3.8c-27.7-3-55.3-6-83-9c-5.2-0.5-10.5-1-15.6-2.3
								C654.6,150.3,664.2,150.3,673.2,149.1L673.2,149.1z"/>
							<path class="st15" d="M932.3,184c-1.4-9,7.9-16,16.1-16.1c11.6,1.9,20.3,11.7,25.5,21.8c5.7,13.4,11.2,27.1,13.4,41.6
								c1.3,9.7-0.9,20.5-8.4,27.3c-13.5,11.5-31.2,15.9-48.3,19c-14.1,1.9-28.2,4-42.5,4c0.5-4,4.9-5.1,8-6.5
								c21.4-8.3,43.2-17.1,61.4-31.4c1.6-1.4,4.3-3.2,3.1-5.7c-2.4-7-7.3-12.9-10.9-19.3C943.4,207.5,934.9,197,932.3,184
								L932.3,184z"/>
							<path class="st15" d="M804.3,243.8c7.1-3.1,16-2.6,22.2,2.2c3.7,3.1,3.6,8.6,2.4,12.8c-4.7,15.2-14.5,28.1-24.8,40
								c-9.8,10.9-19.8,21.4-30.6,31.3c-5.5,4.9-11.3,10.2-18.9,11.6c-6.8,1.8-14.3-1.9-17.2-8.3c-1-7,1.6-13.9,4.7-20
								c5.9-11.5,13.6-22,21.7-32.2C775.5,267.1,787.6,252.2,804.3,243.8z"/>
							<g>
								<rect x="696.2" y="271" class="st15" width="177.6" height="213.4"/>
								<g>
									<g>
										<defs>
											<rect id="SVGID_00000034065396598007986030000018025979552949041042_" x="696.2" y="271" width="177.6" height="213.4"/>
										</defs>
										<clipPath id="SVGID_00000048502358782188673750000017542181079093542320_">
											<use xlink:href="#SVGID_00000034065396598007986030000018025979552949041042_"  style="overflow:visible;"/>
										</clipPath>
										<g style="clip-path:url(#SVGID_00000048502358782188673750000017542181079093542320_);">
											<path class="st15" d="M842.8,275.6c8.3-4.1,19.7-4.6,26.7,2.2c4.8,6,3.2,14.3,1,21c-4.6,12.7-12,24.2-20.4,34.7
												c-45.7,53.1-98.1,99.6-148.6,148c-1.3,1-2.7,2-4.1,2.9c3-8.9,8.6-16.6,13.2-24.7c31.7-51,63.7-101.9,98.3-151
												C818.9,296.4,828.4,282.8,842.8,275.6L842.8,275.6z"/>
										</g>
									</g>
								</g>
							</g>
							<g>
								<rect x="555.8" y="169.9" class="st15" width="186.3" height="290.8"/>
								<g>
									<g>
										<defs>
											
												<rect id="SVGID_00000108272379263168399950000018028451710042153104_" x="555.8" y="169.9" width="186.3" height="290.8"/>
										</defs>
										<clipPath id="SVGID_00000176016654075870254690000008838419577960742301_">
											<use xlink:href="#SVGID_00000108272379263168399950000018028451710042153104_"  style="overflow:visible;"/>
										</clipPath>
										<g style="clip-path:url(#SVGID_00000176016654075870254690000008838419577960742301_);">
											<path class="st15" d="M634,172.5c5.1-3.9,12.9,0.8,12.5,7.1c0.6,36.6-0.4,73.3,0.4,109.9c27.8,0.1,55.6-0.1,83.4,0
												c5.8-0.8,11.3,5.4,8.8,11c-1.3,3.8-5.4,5.2-9.1,5.2c-28.6,0.3-57.2-0.4-85.7,0.3c-29.5,51.1-58.8,102.2-88.4,153.2v-32.7
												c23.1-39.8,46-79.8,69.1-119.6c2.3-4.3,5.8-8.4,5.3-13.6c-0.1-37,0-74,0-111C630.2,178.8,630.7,174.7,634,172.5
												L634,172.5z"/>
										</g>
									</g>
								</g>
							</g>
							<g>
								<rect x="879.9" y="289.3" class="st15" width="164.8" height="18.4"/>
								<g>
									<g>
										<defs>
											
												<rect id="SVGID_00000037693946076653952530000001390050204430073005_" x="879.9" y="289.3" width="164.8" height="18.4"/>
										</defs>
										<clipPath id="SVGID_00000082351723820952038320000000584138210886906033_">
											<use xlink:href="#SVGID_00000037693946076653952530000001390050204430073005_"  style="overflow:visible;"/>
										</clipPath>
										<g style="clip-path:url(#SVGID_00000082351723820952038320000000584138210886906033_);">
											<path class="st15" d="M880.1,298.2c-0.7-5.3,4.7-9,9.5-8.6c51.6-0.1,103.2,0,154.8-0.1v16.3c-51.6,0-103.2,0-154.8,0
												C885.2,306.3,880.3,303,880.1,298.2L880.1,298.2z"/>
										</g>
									</g>
								</g>
							</g>
							<g>
								<rect x="693.2" y="267.9" class="st15" width="183.7" height="216.5"/>
								<g>
									<g>
										<defs>
											
												<rect id="SVGID_00000071535726619555346810000017899114935628915367_" x="693.2" y="267.9" width="183.7" height="216.5"/>
										</defs>
										<clipPath id="SVGID_00000002354391677839450930000002171081954007139712_">
											<use xlink:href="#SVGID_00000071535726619555346810000017899114935628915367_"  style="overflow:visible;"/>
										</clipPath>
										<g style="clip-path:url(#SVGID_00000002354391677839450930000002171081954007139712_);">
											<path class="st15" d="M842.8,275.6c8.3-4.1,19.7-4.6,26.7,2.2c4.8,6,3.2,14.3,1,21c-4.6,12.7-12,24.2-20.4,34.7
												c-45.7,53.1-98.1,99.6-148.6,148c-1.3,1-2.7,2-4.1,2.9c3-8.9,8.6-16.6,13.2-24.7c31.7-51,63.7-101.9,98.3-151
												C818.9,296.4,828.4,282.8,842.8,275.6L842.8,275.6z"/>
										</g>
									</g>
								</g>
							</g>
							<path class="st15" d="M554.9,117.4l18.7,797.2c0.6,27,22.7,48.5,49.6,48.5h308.2c26.2,0,47.8-20.3,49.6-46.4l55.7-846
								c2.1-31.2-24.8-56.5-55.8-52.5L598.3,66.9C573,70.2,554.3,92,554.9,117.4L554.9,117.4z"/>
						</g>
						<g>
							<path class="st0" d="M682,441.8c0,2.5-0.2,4.9-0.7,7.3c-0.5,2.4-1.2,4.8-2.1,7.1c-0.9,2.3-2.1,4.5-3.4,6.5s-2.9,4-4.6,5.7
								c-1.7,1.8-3.6,3.3-5.7,4.7s-4.2,2.5-6.5,3.5c-2.3,0.9-4.6,1.7-7,2.1c-2.4,0.5-4.9,0.7-7.3,0.7s-4.9-0.2-7.3-0.7
								c-2.4-0.5-4.8-1.2-7-2.1c-2.3-0.9-4.4-2.1-6.5-3.5c-2-1.4-4-2.9-5.7-4.7s-3.3-3.7-4.6-5.7s-2.5-4.2-3.4-6.5s-1.6-4.6-2.1-7.1
								c-0.5-2.4-0.7-4.9-0.7-7.3c0-2.5,0.2-4.9,0.7-7.3c0.5-2.4,1.2-4.8,2.1-7.1c0.9-2.3,2.1-4.5,3.4-6.5s2.9-4,4.6-5.7
								c1.7-1.8,3.6-3.3,5.7-4.7s4.2-2.5,6.5-3.5c2.3-0.9,4.6-1.7,7-2.1c2.4-0.5,4.9-0.7,7.3-0.7s4.9,0.2,7.3,0.7
								c2.4,0.5,4.8,1.2,7,2.1c2.3,0.9,4.4,2.1,6.5,3.5c2,1.4,4,2.9,5.7,4.7s3.3,3.7,4.6,5.7s2.5,4.2,3.4,6.5s1.6,4.6,2.1,7.1
								C681.8,436.9,682,439.4,682,441.8z"/>
							<path class="st0" d="M951.4,117.7c0,2.3-0.2,4.6-0.7,6.9c-0.4,2.3-1.1,4.5-2,6.6s-2,4.2-3.3,6.1s-2.8,3.7-4.4,5.4
								c-1.7,1.6-3.4,3.1-5.4,4.4c-1.9,1.3-4,2.4-6.1,3.3s-4.3,1.5-6.6,2s-4.6,0.7-6.9,0.7s-4.6-0.2-6.9-0.7c-2.3-0.5-4.5-1.1-6.6-2
								s-4.2-2-6.1-3.3c-1.9-1.3-3.7-2.8-5.4-4.4c-1.6-1.6-3.1-3.4-4.4-5.4c-1.3-1.9-2.4-4-3.3-6.1s-1.6-4.4-2-6.6
								c-0.5-2.3-0.7-4.6-0.7-6.9s0.2-4.6,0.7-6.9c0.4-2.3,1.1-4.5,2-6.6s2-4.2,3.3-6.1s2.8-3.7,4.4-5.4c1.6-1.6,3.4-3.1,5.4-4.4
								c1.9-1.3,4-2.4,6.1-3.3c2.2-0.9,4.3-1.5,6.6-2s4.6-0.7,6.9-0.7s4.6,0.2,6.9,0.7c2.3,0.5,4.5,1.1,6.6,2c2.2,0.9,4.2,2,6.1,3.3
								s3.7,2.8,5.4,4.4c1.6,1.6,3.1,3.4,4.4,5.4c1.3,1.9,2.4,4,3.3,6.1s1.6,4.4,2,6.6C951.2,113,951.4,115.4,951.4,117.7z"/>
							<path class="st0" d="M673.2,149.1c45.1-4.3,90.2-8,135.3-11.6c11,0.1,22.4-1.2,33.2,1.8c6.9,1.8,13.9,7.7,13.6,15.4
								c-0.7,8.2-9,13.1-16.4,14.5c-31.4,4-62.8-0.9-94.1-3.8c-27.7-3-55.3-6-83-9c-5.2-0.5-10.5-1-15.6-2.3
								C654.6,150.3,664.2,150.3,673.2,149.1L673.2,149.1z"/>
							<path class="st0" d="M932.3,184c-1.4-9,7.9-16,16.1-16.1c11.6,1.9,20.3,11.7,25.5,21.8c5.7,13.4,11.2,27.1,13.4,41.6
								c1.3,9.7-0.9,20.5-8.4,27.3c-13.5,11.5-31.2,15.9-48.3,19c-14.1,1.9-28.2,4-42.5,4c0.5-4,4.9-5.1,8-6.5
								c21.4-8.3,43.2-17.1,61.4-31.4c1.6-1.4,4.3-3.2,3.1-5.7c-2.4-7-7.3-12.9-10.9-19.3C943.4,207.5,934.9,197,932.3,184
								L932.3,184z"/>
							<path class="st0" d="M804.3,243.8c7.1-3.1,16-2.6,22.2,2.2c3.7,3.1,3.6,8.6,2.4,12.8c-4.7,15.2-14.5,28.1-24.8,40
								c-9.8,10.9-19.8,21.4-30.6,31.3c-5.5,4.9-11.3,10.2-18.9,11.6c-6.8,1.8-14.3-1.9-17.2-8.3c-1-7,1.6-13.9,4.7-20
								c5.9-11.5,13.6-22,21.7-32.2C775.5,267.1,787.6,252.2,804.3,243.8z"/>
							<g>
								<g>
									<defs>
										<rect id="SVGID_00000168832879758773282550000000766163168173232542_" x="696.2" y="271" width="177.6" height="213.4"/>
									</defs>
									<clipPath id="SVGID_00000085226354694079304310000009579662609600096654_">
										<use xlink:href="#SVGID_00000168832879758773282550000000766163168173232542_"  style="overflow:visible;"/>
									</clipPath>
									<g style="clip-path:url(#SVGID_00000085226354694079304310000009579662609600096654_);">
										<path class="st0" d="M842.8,275.6c8.3-4.1,19.7-4.6,26.7,2.2c4.8,6,3.2,14.3,1,21c-4.6,12.7-12,24.2-20.4,34.7
											c-45.7,53.1-98.1,99.6-148.6,148c-1.3,1-2.7,2-4.1,2.9c3-8.9,8.6-16.6,13.2-24.7c31.7-51,63.7-101.9,98.3-151
											C818.9,296.4,828.4,282.8,842.8,275.6L842.8,275.6z"/>
									</g>
								</g>
							</g>
							<g>
								<g>
									<defs>
										
											<rect id="SVGID_00000039133003371009823170000001071865556711382463_" x="555.8" y="169.9" width="186.3" height="290.8"/>
									</defs>
									<clipPath id="SVGID_00000127002170192967221260000003637116916759151750_">
										<use xlink:href="#SVGID_00000039133003371009823170000001071865556711382463_"  style="overflow:visible;"/>
									</clipPath>
									<g style="clip-path:url(#SVGID_00000127002170192967221260000003637116916759151750_);">
										<path class="st0" d="M634,172.5c5.1-3.9,12.9,0.8,12.5,7.1c0.6,36.6-0.4,73.3,0.4,109.9c27.8,0.1,55.6-0.1,83.4,0
											c5.8-0.8,11.3,5.4,8.8,11c-1.3,3.8-5.4,5.2-9.1,5.2c-28.6,0.3-57.2-0.4-85.7,0.3c-29.5,51.1-58.8,102.2-88.4,153.2v-32.7
											c23.1-39.8,46-79.8,69.1-119.6c2.3-4.3,5.8-8.4,5.3-13.6c-0.1-37,0-74,0-111C630.2,178.8,630.7,174.7,634,172.5L634,172.5
											z"/>
									</g>
								</g>
							</g>
							<g>
								<g>
									<defs>
										<rect id="SVGID_00000132799762108863508140000003792097981912963006_" x="879.9" y="289.3" width="164.8" height="18.4"/>
									</defs>
									<clipPath id="SVGID_00000027592533176953349180000016715877661438359231_">
										<use xlink:href="#SVGID_00000132799762108863508140000003792097981912963006_"  style="overflow:visible;"/>
									</clipPath>
									<g style="clip-path:url(#SVGID_00000027592533176953349180000016715877661438359231_);">
										<path class="st0" d="M880.1,298.2c-0.7-5.3,4.7-9,9.5-8.6c51.6-0.1,103.2,0,154.8-0.1v16.3c-51.6,0-103.2,0-154.8,0
											C885.2,306.3,880.3,303,880.1,298.2L880.1,298.2z"/>
									</g>
								</g>
							</g>
							<g>
								<g>
									<defs>
										
											<rect id="SVGID_00000040539678536825174730000006809661880118241937_" x="693.2" y="267.9" width="183.7" height="216.5"/>
									</defs>
									<clipPath id="SVGID_00000040554865742590535010000007119631584019789194_">
										<use xlink:href="#SVGID_00000040539678536825174730000006809661880118241937_"  style="overflow:visible;"/>
									</clipPath>
									<g style="clip-path:url(#SVGID_00000040554865742590535010000007119631584019789194_);">
										<path class="st24" d="M842.8,275.6c8.3-4.1,19.7-4.6,26.7,2.2c4.8,6,3.2,14.3,1,21c-4.6,12.7-12,24.2-20.4,34.7
											c-45.7,53.1-98.1,99.6-148.6,148c-1.3,1-2.7,2-4.1,2.9c3-8.9,8.6-16.6,13.2-24.7c31.7-51,63.7-101.9,98.3-151
											C818.9,296.4,828.4,282.8,842.8,275.6L842.8,275.6z"/>
									</g>
								</g>
							</g>
						</g>
					</g>
				</g>
			</g>
		</g>
	</g>
	<g>
		<g id="Lamb">
			<path class="st0" d="M284.8,1071.4c-6.1,0-12.3-0.3-18.1-0.8c-23-2-47.1-2.4-78.2-1.2c-25.3,0.9-42.4-0.9-55.1-6.2
				c-9.2-3.7-15.2-8.8-19.7-13.7c-1.6,0.1-3.1,0-4.5-0.2c-25.5-3.6-63.9-9.1-77.9-45l-0.6-1.6l-0.3-1.7c-0.1-0.4-8.8-42.5-14.6-65.5
				c-3-12.1-1.8-24,3.4-34.5c6.1-12.1,17.1-21.6,32.8-28.1c1.4-0.6,2.8-1.1,4.2-1.6c2.4-0.9,5.5-2,6.3-3c0.7-0.8,1.7-3.6,1.6-9.3
				c-4.6-2.1-10-5.2-16.6-10.2C14.8,824.2-3.6,780.5,0.6,737.4c2.1-21.6,9.8-42.5,22.3-60.3c13.8-19.6,32.9-35.4,56.9-47.1
				c28.1-13.7,64.7-14.3,85-13.4c6-9.5,13.3-16.2,22.1-19.9c15.3-6.5,29.8-2.1,39.8,2c5.2-9.5,14.2-22,32.2-26.5
				c22.7-5.7,39.1,2.3,47,11.3c8.6,8.9,19.3,28.9,9.3,53.2c-2.1,5-4,9-5.5,12.2c-0.1,0.2-0.1,0.3-0.2,0.5
				c5.4,4.5,13.1,11.2,17.4,21.6c3.8,9.3,4,19.2,0.7,29.6c5.9,0.4,12.6,0.5,16.4,0.5h0.9c35.9,0.4,81.2,27.5,92.4,70.5
				c1.7,2,6.9,6,10.5,8.7c10,7.5,22.3,16.8,30.9,31.6c3.1,5.3,29.3,53.5,7.7,104.3c-2.8,6.7-3,22.3-3.2,34.8
				c-0.3,25.6-0.6,49.8-17.6,62.5c-2.4,1.8-4.7,3.2-6.7,4.5c-5.7,3.6-6.1,4.1-6.9,6.6c-4.8,14.8-17.8,33.3-52.9,37.3
				c-18.9,2.1-39.8-0.5-55.1-2.4c-3.2-0.4-7.1-0.9-10.4-1.2C322.5,1068.4,303.6,1071.4,284.8,1071.4L284.8,1071.4z M301.9,1032.6
				L301.9,1032.6C301.8,1032.7,301.8,1032.6,301.9,1032.6z M220.6,1026.8c18,0,34,0.7,49.7,2.1c17.8,1.6,29.2-0.1,33.8-1.5
				c3.5-5.8,10.8-11.9,25.9-11.4c5.3,0.2,11.6,1,18.9,1.9c17.5,2.2,58.6,7.3,63-6.1c5.5-17.2,16.8-24.4,24.3-29.1
				c0.9-0.6,1.8-1.2,2.6-1.7c1.9-5.5,2.1-20.9,2.2-30.4c0.2-17.9,0.4-36.4,6.5-50.7c11.2-26.2,1.3-55.3-5.4-67
				c-4.2-7.4-12.2-13.3-19.8-19.1c-10.4-7.8-22.1-16.7-25.7-31.1c-5.5-22.4-32.2-39.4-52.4-39.6h-0.9c-22.8-0.3-48.7-0.6-59.3-19.2
				c-3.1-5.4-7-16.7,1.3-31.1c1.9-3.3,2.5-5.4,2.6-6.2c-0.9-1.3-3.9-3.9-5.8-5.5c-4.4-3.7-9.9-8.2-13.1-15.1
				c-7-14.6-1.5-26.1,2.9-35.3c1.4-2.8,2.9-6,4.5-9.9c1.6-4,0.6-6.6-0.7-8.2l-0.5-0.4c-1-0.2-3-0.3-6.2,0.5
				c-2.7,0.7-4.4,3.1-7.8,10.2c-2.8,5.7-5.9,12-12.4,16.6c-12.4,8.7-25.6,3.1-34.3-0.6c-3-1.3-9.3-4-11.5-3.7
				c-0.5,0.3-3.1,2.5-6.4,10.8l-5.9,15.3l-16.2-2c-13.2-1.6-52.6-3.3-76.5,8.4c-33,16-52.8,42.2-55.9,73.8
				c-2.8,28.9,9.1,57.9,30.4,73.9c7.2,5.4,10.3,6.2,12.4,6.8c19.1,5.1,20,19.7,20.7,31.5c2.6,43.1-24.9,53.1-35.2,56.9
				c-1,0.3-1.9,0.7-2.5,0.9c-13.8,5.8-12.5,11-11.8,13.8c5.4,21.2,12.7,56.3,14.6,65.2c4.2,8.7,14.7,12.6,33.9,15.8
				c3.2-2.5,6.6-3.7,9-4.2c4.9-1,14.4-1.2,22.9,9c1.7,2.1,3.1,4,4.4,5.7c3.7,5,4.8,6.3,8.1,7.6c4.6,1.9,15,4,37.8,3.1
				C199,1027,210.2,1026.8,220.6,1026.8L220.6,1026.8z M438.5,981.8L438.5,981.8z M276.1,612.7L276.1,612.7z"/>
			<g id="Lamb-2">
				<g id="g6761">
					<g>
						<g>
							<defs>
								<rect id="SVGID_00000103244974682790528670000013985119271552487076_" x="20.9" y="591" width="452.3" height="459.4"/>
							</defs>
							<clipPath id="SVGID_00000157998690315630522060000017653964010317397938_">
								<use xlink:href="#SVGID_00000103244974682790528670000013985119271552487076_"  style="overflow:visible;"/>
							</clipPath>
							<g style="clip-path:url(#SVGID_00000157998690315630522060000017653964010317397938_);">
								<rect x="0" y="570.1" class="st26" width="494.1" height="501.3"/>
								<g id="g6763">
									<g id="g6771">
										<path id="path6773" class="st27" d="M177.3,638.4c0,0-53.3-6.7-88.3,10.3C-0.8,692.3,7.7,792.5,60.1,832
											c23.9,18,23.6,2.9,24.8,22.8c1.9,30.9-15.4,33.4-24.8,37.3c-24,10-27.2,25.8-24,38.2c6,23.7,14.8,66.4,14.8,66.4
											c9.2,23.8,35.6,28.2,61.3,31.8c7.1,1,3.2-10.4,8.4-4.1c11.1,13.4,12.7,26.1,67.2,24c30.8-1.2,56.3-0.8,80.9,1.3
											c27.5,2.4,50.5-1.2,53.4-11.1c2.8-9.5,96,23.3,110-20.6c4.1-12.8,13.1-15.6,21-21.5c15.6-11.6,4-65,14-88.7
											c15.4-36.1,0.7-73.1-6.5-85.7c-12.8-21.8-39.8-30-43.4-44.6c-7.8-31.9-43-55.2-72.5-55.6c-20.2-0.2-51.8-0.3-41.1-18.9
											c16.9-29.3-10.9-36.2-15.6-46.2c-3.7-7.8,1.4-12.3,7.9-28.3c7.7-18.8-5.4-31.2-5.4-31.2s-7.4-9.9-26.4-5.2
											c-19,4.8-20.9,25.6-27.1,29.9C227.3,628.9,195.6,591,177.3,638.4"/>
									</g>
								</g>
							</g>
						</g>
					</g>
				</g>
				<g id="g6783">
					<path id="path6785" class="st28" d="M109.1,932.3c0-0.4-0.1-0.8-0.4-1.8c-1.4-5-3.3-12.9-4.8-17.5c-0.2-0.5-0.3-0.6-0.8-0.6
						c-0.4,0-0.8,0.9-0.8,0.9l-37.2,69.4c-3.7,1.4-6.3,5.1-6.2,9.3c0.1,5.4,4.3,9.8,9.5,9.7c5.2-0.1,9.4-4.5,9.3-9.9
						c0-0.1,0-0.1,0-0.2l30.7-57.4C108.4,934.2,109.2,932.7,109.1,932.3"/>
				</g>
				<g id="g6787">
					<path id="path6789" class="st0" d="M242.6,811c0,0,11.3-9.1,20.9-45.4c8.3-31.6-6.4-59.5-6.4-59.5s24.9,28.1,70,27.5
						c47.8-0.6,63.6,18.2,68.6,27.2c1.2,2.2,1.9,3,2,4.3c0.1,1-0.5,1.5-1.9,3.9c-5.7,9.7-21.1,37.2-26.4,38c0,0,6-29.2-48.4-9.7
						S242.6,811,242.6,811"/>
				</g>
				<g id="g6791">
					<path id="path6793" class="st0" d="M359.9,809.1c-3.1,2.2-6.3,0.7-7.7-0.3c-6.2-4.5-9.2-4.3-10.9-3.8c-1.7,0.5-4,3.1-2,7.4
						c0,0-1.7-0.5-2.9-1.6c-1.2-1.2-3-5.1,0.5-9c2-2.3,5.9-5,11.7-5.3c3.1-0.1,6.9,0.7,10.1,3.3
						C362.2,802.5,363.2,806.7,359.9,809.1"/>
				</g>
				<g id="g6795">
					<path id="path6797" class="st0" d="M343.7,813.7c0.2-0.1,0.2,0,0.7,0c3.8,0.6,21.7,3.3,27.4-1.2c6.4-5,17.2-19.4,17.2-19.4
						s6.8-9.9,15.3-3.1c17.4,13.8,49.6,40.5,54,66.7c3,18.1,3.1,25.1,1.3,25.3c-1.7,0.2-6.8-15.9-16.1-26.8s-36.6-27.8-57-32.1
						c-22.9-4.8-43.2-5-43-8.9C343.5,814,343.5,813.8,343.7,813.7"/>
				</g>
				<g id="g6799">
					<path id="path6801" class="st28" d="M220.4,746.2c-0.1,0.5-0.1,0.5,0.1,1.3c1,5,9.1,10.5,0.6,50.2c-0.1,0.7,31-40.4,17.7-76.3
						c-0.3-0.8-0.6-1.7-1-1.7s-1.1,1.3-1.1,1.3L221,745C220.9,745.1,220.5,745.8,220.4,746.2"/>
				</g>
				<g id="g6803">
					<path id="path6805" class="st28" d="M64.2,747.8c0.3,0.3,0,0.9,0,0.9c-1.6,4.2-12,32-7.9,50.5c0,0.1,0.1,0.6,0,0.6
						c-0.2,0-0.3-0.2-0.5-0.3c-2.8-2.3-29.7-25.3-18.2-60.5c0.2-0.5,0.5-0.8,1.1-0.9c0.5-0.1,1.2,0.2,1.2,0.2l23.7,9.2
						C63.6,747.4,64,747.6,64.2,747.8"/>
				</g>
				<g id="g6807">
					<path id="path6809" class="st28" d="M118.2,658.3c0.5,0.2,0.6,1,0.6,1l6,24.6c0,0,0.4,1.2,0,1.6c-0.3,0.4-1.5,0.6-1.5,0.6
						c-3.8,1.1-37.9,3.2-53.5,45.2c0,0-0.3,1.3-1.4,1.4c-0.8,0.1-1.6-0.2-1.6-0.2l-20.7-10.7c0,0-0.8-0.3-1-0.5
						c-0.4-0.5,0-1.9,0-1.9c2.7-10.7,19.2-50.6,70.9-61.2C117,658.2,117.6,658.1,118.2,658.3"/>
				</g>
				<g id="g6811">
					<path id="path6813" class="st28" d="M198.6,707.3c-1,0.3-2.1-0.7-2.1-0.7c-9.4-9.5-29.7-25.1-57.2-22c0,0-1.1,0.2-1.5-0.3
						c-0.5-0.5-0.5-1.7-0.5-1.7l-2.3-23.9c0,0-0.3-1.9,0.6-2.8c1.2-1.1,3.5-1.1,3.5-1.1c12.2-1,44.8-0.8,70.7,24.2
						c1.1,1.1,2.4,2.2,2.5,3.4s-1.3,3.5-1.3,3.5L200.1,706C200.2,706.1,199.6,706.9,198.6,707.3"/>
				</g>
				<g id="g6815">
					<path id="path6817" class="st28" d="M245.4,676.6c0,0,0.5-0.9,1.3-1.1c0.8-0.2,2.2,0.9,2.2,0.9l21.8,16.3
						c0.5,2.2,1.7,4.3,3.6,5.7s4.2,2,6.4,1.8h0.3c2.5-0.4,4.9-1.7,6.5-4s2.1-5.1,1.5-7.7l-0.2-0.9c-0.6-2-1.8-3.8-3.5-5.1
						c-1.8-1.3-3.8-1.9-5.8-1.8l-24.2-18.3c0,0-1.1-0.7-1.4-1.5c-0.2-0.7,0.9-2.1,0.9-2.1"/>
				</g>
				<g id="g6819">
					<path id="path6821" class="st28" d="M242.8,649.5c0,0-0.9,1.6-1.6,1.6c-0.8,0-1.8-0.8-1.8-0.8l-23-16.7c-0.6-2-1.8-3.8-3.6-5.1
						c-1.8-1.3-3.8-1.8-5.8-1.7l-0.9,0.1c-2.5,0.4-4.9,1.8-6.4,4.1c-1.6,2.4-2,5.2-1.4,7.7l0.1,0.3c0.5,2.2,1.8,4.2,3.7,5.6
						c1.9,1.4,4.2,1.9,6.4,1.6l24,17.1c0,0,1.5,1,1.6,1.8c0,0.8-0.6,1.6-0.6,1.6"/>
				</g>
				<g id="g6823">
					<path id="path6825" class="st28" d="M274.9,620.8c2-0.8,3.7-2.3,4.8-4.3c2.5-4.7,0.9-10.7-3.7-13.3c-4.5-2.7-10.3-0.9-12.8,3.8
						c-1.1,2.1-1.4,4.4-1,6.5l-35.8,66.4l-20.1,37.7c0,0-0.4,0.7-0.5,1.2c0,0.5,0.5,1.3,0.5,1.3l7.2,13c0,0,0.5,1,1.2,1
						c0.7-0.1,1.3-1.4,1.3-1.4L274.9,620.8L274.9,620.8z"/>
				</g>
				<g id="g6827">
					<path id="path6829" class="st27" d="M163,665.4c1.6,0.5-4,11.3-5.3,20.2l-36.9,2.5c0,0,0.6-1.8,2.1-3.7
						c1.6-1.9,4.4-3.7,4.4-3.7s6-3.5,16-4C149.4,676.5,162.2,665.1,163,665.4"/>
				</g>
				<g id="g6831">
					<path id="path6833" class="st0" d="M96.7,906.5c0-0.2-0.1-0.7-0.1-0.7l-1.8-11.3c0,0-0.1-0.3-0.3-0.5c-0.2-0.1-0.5,0-0.9,0.4
						c-3.3,2.8-16.5,13.3-29.7,14.4c-12,1-13.4,17.9-11.5,25.1c1.4,5,8.1,29.4,9.1,34.4c0,0.2,0.1,0.9,0.4,0.9
						c0.4,0,0.9-0.8,0.9-0.8l33.8-61.2C96.6,907,96.7,906.8,96.7,906.5"/>
				</g>
				<g id="g6835">
					<path id="path6837" class="st0" d="M109.7,982c-0.5-0.6-1.4-0.9-1.4-0.9l-10.8-2.2c0,0-1.4-0.4-2.3,0c-0.9,0.4-1.6,1.8-1.6,1.8
						l-9.7,18c0,0-0.5,0.8-0.3,1.4s0.9,1,0.9,1l24.3,9.7c0,0,0.9,0.5,1.4-0.1c0.6-0.6,0.6-1.2,0.6-1.2l-0.6-25.2
						C110.2,984.2,110.3,982.6,109.7,982"/>
				</g>
				<g id="g6839">
					<path id="path6841" class="st0" d="M426.6,883.7c-2-24.3-17.8-32.3-36.6-40.7c-18.8-8.5-47.2-9.8-65-8.7
						c-17.8,1.1-45.2,4-57.6,1.3c-55.4-12.1-70.7-2.6-70.7-2.6c7.5-12.8,12.3-38.3,9.4-59.1s-15.4-50.9-33.4-59
						c0,0-7.1-3.8-10.9-4.2c-3.8-0.4-6.3-0.6-8.5,1.6c-2.2,2.2-13.1,9.2-12.7,2.8c0,0,12.6-2.9,12-19c-0.5-16.1,7.7-25.6,7.7-25.6
						s-11.4,10.1-18.7,10.5s-19.6,4.3-21.9,17c-1.9,10.3-0.9,13.7-0.9,13.7s-16.8-0.7-21.4,6.2c-4.6,6.9-13.4,29.6-16,34.4
						c-2.5,4.8-15.2,34-13.3,42.9s5.6,12.4,11,13c4.8,0.5,7.5-0.4,9.4-3.2s5.9-5.4,9-4c3.1,1.5,3,5.1,0.8,4.4
						c-2.2-0.7-5.2-1.5-6.9,0.8c-1.8,2.3-4.4,6-7.4,5.2c-3-0.7-4.5-0.1-4.4,0.7s7,6.1,10.6,6.6s8.7-3.7,11.4-6.2s12-8.3,13-10
						s5.8-2.4,9-2.6c3.2-0.2,10.4-1.6,13-4.7c2.6-3.1,2.9-6.9,6.1-5.5c3.1,1.5-9,21.3-13.9,23.7c-11.4,5.6-14.9,33.2-14.9,33.2
						c0,11.1-5.6,28.4-3.1,60.1c0.8,9.5,4.2,25.6,14.2,41.8c12.3,19.8,21.5,21.1,22,21.8c0.8,1.3,7.6-24.4,9.6-25.5
						s0.5,9.5-1.5,13.2s-6.4,16.6-8.1,20.9c-1.8,4.2-5.3,8.7-9.4,9.2c-4.1,0.5-8.1,17.7-8.1,22s3,4.8,4.1,3.7
						c1-1.1,1.8,6.3,11.7,10.6c9.9,4.2,41.1-1.1,47.2-0.5c6.1,0.5,21.8,1.6,25.1,3.2c3.3,1.6,15.2-1.6,17.8-1.6s2.3-2.9,3-4.2
						c0.8-1.3,1.8,1.6,1.8,3.7s9.6,1.3,15,0.8c5.3-0.5,7.4-3.9,6.6-7.1c-0.7-3.2,1-10.3,1.8-12.2c0.8-1.8,2.8-9.5,3.8-11.4
						s-1-2.4-5.6-2.7c-4.5-0.3-14.7,5.6-19,6.6c-4.3,1.1-9.6,0.8-11.9-0.5s-10.4-2.1-15.8-1.9c-5.3,0.3-27.7,0.8-32.8,0.5
						c-5.1-0.3-8.1,2.1-10.1,2.1s-2-3.7-2-5.6s4,0,11.2-2.1c7.1-2.1,15.5-11.4,16.8-14.3s5.3-1.6,9.2-6.2c3.9-4.7,2.5-13.3,0.7-17.3
						s-0.8-6.9,1.5-9s4.6,1.9,4.1,4.5s0.2,5.3,1.3,9.8c1,4.5-1.8,17.5-11.3,22.3c-2.5,1.3,25,4.7,42.6,5.5
						c17.4,0.7,35.7,3.3,50.4,1.1c16.4-2.6,28.2-10.9,31-12.4c2.8-1.6-0.3-4.8-2.3-9.5c-2-4.8-3-13.8-3.6-18.8
						c-0.5-5,0.8-11.4,2.8-12.2c2-0.8,2,1.8,2,12.2s8.9,24.1,10.4,25.9s1.3-3.4,1.5-5.8s2.8,0,3.3,2.9s4.8,5.3,11.2,9.3
						c6.4,4,14.2,3.4,14.2,3.4v2.4c0,2.4-2.3,3.4-5.8,2.7c-3.5-0.8-8.1,0.5-13.2,3.2s-14,4.2-18.8,3.7s-5.3,1.8-7.1,2.9
						c-1.8,1.1-6.1-2.1-9.6-2.4S300,997,299.2,997s-0.8-1.8-0.5-3.7c0.2-1.8-2-0.3-4,2.1s2.3,6.9,1.8,10.1s-4.1-3.7-5.4-5.6
						c-1.3-1.8,0,0-6.8,5.8c-5.5,4.6-6.4,16.9-6.6,21.8c0,1.2-0.1,1.5,0.1,2s1.1,0.8,1.1,0.8c1.4,0.8,4,2.1,7.4,3.2
						c3.9,1.4,11,1.7,14.5,1.8c1.2,0,1.6,0.1,1.9-0.2c0.3-0.2,0.2-0.6,0.3-1.4c0-0.5,0.9-6.8,1.6-8.2c0.8-1.3,1.8-2.9,0.8-4
						s-1.3-3.4-0.7-4.8c0.5-1.3,9.9,1.1,11.4,1.8s5.6,0.8,8.6,1.2c3,0.4,6.6-2.3,8.1-4.4s8.9-1.1,8.9-1.1c8.1-0.8,29.7,4.5,41.1,5.3
						c10.7,0.7,22-1.1,25.7-2.4v0.2c0.2-0.1,0.4-0.2,0.7-0.4c0.1-0.1,0.2-0.1,0,0l0,0c2.7-2.1,4.7-8.2,5.7-10.3
						c1.1-2.3,2.5-0.3,5.3-3.5s-2.2-13.6-3.9-14.2c-1.7-0.6,0.3,7.6-1.4,7.6c-1.5,0-1.2-7.3-1.7-18.4l0.1-0.6
						c-0.8-12.2,4.6-26.2,8.6-41.5C425.8,920.7,428.6,908,426.6,883.7"/>
				</g>
				<g id="g6843">
					<path id="path6845" class="st0" d="M429.3,870c0,0,21,10.9,18.8,46.4c-1.5,23.3-2.7,22.8-3.4,32.3s0,19.8,0,19.8
						s1.7,20.2-15.5,18.1c-13.7-1.7-8.8-15.6-8.8-15.6s6.4-34.6,11.5-57.1C436.3,894.5,429.3,870,429.3,870"/>
				</g>
				<g id="g6847">
					<path id="path6849" class="st27" d="M94,758c0.9,0.2,2.2-4,4-9.9c1.6-5.4,6.4-7.8,10.7-8.5c-0.2,0.7-0.5,1.7-0.8,2.8
						c-0.5,1.8-2.7,1-3.7,3.6c-1.6,4,2.4,8.7,3.6,8.2c2.3-0.9,4.9-12.4,5.2-14.9c1.4,0,2.6,0.2,3.4,0.5c1,0.3,1.9-2,0.7-2.2
						c0,0-16.3-2.9-20.6,8.6C94.6,751.3,93.1,757.8,94,758 M107.4,747.7c0.1-0.3,0.4-0.4,0.7-0.3c0.3,0.1,0.4,0.4,0.3,0.7
						c-0.1,0.3-0.4,0.4-0.7,0.3S107.3,748,107.4,747.7"/>
				</g>
				<g id="g6851">
					<path id="path6853" class="st27" d="M128,712l-1.7-0.6c0,0,3.1-12.8,7.6-17.7c4-4.2,8.5-3.3,9.6-2.7c1.2,0.7,2.1,4.1-0.7,5.2
						c-1.4,0.5-2.8-0.1-2.9-1.2c-0.1-1-3.9-0.9-6,2C132.3,699.3,130.3,703.3,128,712"/>
				</g>
			</g>
		</g>
		<g id="Text">
			<rect x="416.9" y="627.3" class="st0" width="896.9" height="362.8"/>
			<rect x="276.3" y="803.6" class="st0" width="1113.1" height="267.5"/>
			<rect x="1091" y="539" class="st0" width="168.7" height="56"/>
			<polygon class="st0" points="1475.6,980.1 1471.6,881.1 1442.6,915.1 1461.4,985.2 			"/>
			<g class="st29">
				<path class="st30" d="M453.7,514.4c28.4,0,48.2,5.4,59.3,16.2s16.7,29.6,16.7,56.5v33.6c0,26.6-5.6,45.3-16.7,56
					c-11.1,10.7-30.9,16.2-59.3,16.7V781h-50V514.4H453.7z M453.7,643.3c10,0,16.8-1.4,20.5-4.3c3.7-2.9,5.5-9,5.5-18.3v-33.6
					c0-9.3-1.8-15.4-5.5-18.3c-3.7-2.9-10.5-4.3-20.5-4.3V643.3z"/>
				<path class="st30" d="M626.2,561.1c14.2,0,23.6,5.3,28.3,15.8s7,28.4,7,53.5v13.3h-50V627c0-7.1-1-12.1-3-15s-5.2-4.3-9.7-4.3
					c-4.4,0-7.7,1.4-9.7,4.3c-2,2.9-3,7.9-3,15v153.9h-50V564.4h50v24.3C594.5,570.3,607.8,561.1,626.2,561.1z"/>
				<path class="st30" d="M730.8,561.1c41.7,0,62.6,25.3,62.6,75.9v45.6h-75.3v25.6c0,11.8,0.8,19.6,2.3,23.5
					c1.6,3.9,5,5.8,10.3,5.8s8.8-1.9,10.3-5.8c1.6-3.9,2.3-11.7,2.3-23.5v-12.3h50v12.3c0,50.6-20.9,75.9-62.6,75.9
					c-41.8,0-62.6-25.3-62.6-75.9v-71.3C668.2,586.4,689.1,561.1,730.8,561.1z M743.5,649.3V637c0-11.5-0.8-19.3-2.5-23.3
					s-5.1-6-10.2-6c-5.3,0-8.8,1.9-10.3,5.8c-1.6,3.9-2.3,11.7-2.3,23.5v12.3H743.5z"/>
			</g>
			<g class="st29">
				<path class="st31" d="M453.7,514.4c28.4,0,48.2,5.4,59.3,16.2s16.7,29.6,16.7,56.5v33.6c0,26.6-5.6,45.3-16.7,56
					c-11.1,10.7-30.9,16.2-59.3,16.7V781h-50V514.4H453.7z M453.7,643.3c10,0,16.8-1.4,20.5-4.3c3.7-2.9,5.5-9,5.5-18.3v-33.6
					c0-9.3-1.8-15.4-5.5-18.3c-3.7-2.9-10.5-4.3-20.5-4.3V643.3z"/>
				<path class="st31" d="M626.2,561.1c14.2,0,23.6,5.3,28.3,15.8s7,28.4,7,53.5v13.3h-50V627c0-7.1-1-12.1-3-15s-5.2-4.3-9.7-4.3
					c-4.4,0-7.7,1.4-9.7,4.3c-2,2.9-3,7.9-3,15v153.9h-50V564.4h50v24.3C594.5,570.3,607.8,561.1,626.2,561.1z"/>
				<path class="st31" d="M730.8,561.1c41.7,0,62.6,25.3,62.6,75.9v45.6h-75.3v25.6c0,11.8,0.8,19.6,2.3,23.5
					c1.6,3.9,5,5.8,10.3,5.8s8.8-1.9,10.3-5.8c1.6-3.9,2.3-11.7,2.3-23.5v-12.3h50v12.3c0,50.6-20.9,75.9-62.6,75.9
					c-41.8,0-62.6-25.3-62.6-75.9v-71.3C668.2,586.4,689.1,561.1,730.8,561.1z M743.5,649.3V637c0-11.5-0.8-19.3-2.5-23.3
					s-5.1-6-10.2-6c-5.3,0-8.8,1.9-10.3,5.8c-1.6,3.9-2.3,11.7-2.3,23.5v12.3H743.5z"/>
			</g>
			<g class="st29">
				<path class="st30" d="M883.7,654.6c14.7,10.9,25.3,20.9,31.8,30s9.8,21.4,9.8,37c0,19.5-5,34.9-15,46s-25.4,16.7-46.3,16.7
					c-22.4,0-38.7-5.9-48.8-17.7S800,734.3,800,705h50c0,12.4,1.1,21,3.3,25.6c2.2,4.7,5.8,7,10.7,7c7.5,0,11.3-5.3,11.3-16
					c0-5.5-2.1-10.8-6.2-15.8c-4.1-5-13.3-12.4-27.5-22.2c-6-4.2-10.2-7.2-12.7-9c-2.4-1.8-6-4.8-10.7-9.2s-8-8.3-10-12
					s-3.9-8.4-5.7-14.2s-2.7-12.1-2.7-19c0-17.8,5-32.1,15.2-43c10.1-10.9,25.1-16.3,45.1-16.3c41.1,0,61.6,24.2,61.6,72.6h-50
					c0-17.3-3.9-26-11.7-26c-6.9,0-10.3,4.2-10.3,12.7c0,1.1,0.1,2.2,0.3,3.2s0.4,1.9,0.7,2.8c0.2,0.9,0.7,1.8,1.3,2.8
					s1.3,1.9,1.8,2.7c0.6,0.8,1.5,1.7,2.8,2.8s2.5,2.1,3.5,2.8c1,0.8,2.5,1.9,4.5,3.5s3.7,2.8,5.2,3.8c1.4,1,3.5,2.6,6.3,4.7
					C879.3,651.6,881.7,653.3,883.7,654.6z"/>
			</g>
			<g class="st29">
				<path class="st31" d="M883.7,654.6c14.7,10.9,25.3,20.9,31.8,30s9.8,21.4,9.8,37c0,19.5-5,34.9-15,46s-25.4,16.7-46.3,16.7
					c-22.4,0-38.7-5.9-48.8-17.7S800,734.3,800,705h50c0,12.4,1.1,21,3.3,25.6c2.2,4.7,5.8,7,10.7,7c7.5,0,11.3-5.3,11.3-16
					c0-5.5-2.1-10.8-6.2-15.8c-4.1-5-13.3-12.4-27.5-22.2c-6-4.2-10.2-7.2-12.7-9c-2.4-1.8-6-4.8-10.7-9.2s-8-8.3-10-12
					s-3.9-8.4-5.7-14.2s-2.7-12.1-2.7-19c0-17.8,5-32.1,15.2-43c10.1-10.9,25.1-16.3,45.1-16.3c41.1,0,61.6,24.2,61.6,72.6h-50
					c0-17.3-3.9-26-11.7-26c-6.9,0-10.3,4.2-10.3,12.7c0,1.1,0.1,2.2,0.3,3.2s0.4,1.9,0.7,2.8c0.2,0.9,0.7,1.8,1.3,2.8
					s1.3,1.9,1.8,2.7c0.6,0.8,1.5,1.7,2.8,2.8s2.5,2.1,3.5,2.8c1,0.8,2.5,1.9,4.5,3.5s3.7,2.8,5.2,3.8c1.4,1,3.5,2.6,6.3,4.7
					C879.3,651.6,881.7,653.3,883.7,654.6z"/>
			</g>
			<g class="st29">
				<path class="st30" d="M1028.6,611h-33.3v97.3c0,10.7,1.5,17.7,4.5,21s7.9,5,14.8,5h14v46.6h-27.3c-22.7,0-37.6-5.2-45-15.5
					c-7.3-10.3-11-29.4-11-57.1V611h-20v-46.6c16-4.7,23.8-21.3,23.3-50h50c0,29.5-7.8,46.2-23.3,50h53.3V611z"/>
				<path class="st30" d="M1035.3,708.3V637c0-50.6,20.9-75.9,62.6-75.9s62.6,25.3,62.6,75.9v71.3c0,50.6-20.9,75.9-62.6,75.9
					C1056.1,784.2,1035.3,758.9,1035.3,708.3z M1085.2,708.3c0,11.8,0.8,19.6,2.3,23.5c1.6,3.9,5,5.8,10.3,5.8s8.8-1.9,10.3-5.8
					c1.6-3.9,2.3-11.7,2.3-23.5V637c0-11.5-0.8-19.3-2.5-23.3s-5.1-6-10.2-6c-5.3,0-8.8,1.9-10.3,5.8c-1.6,3.9-2.3,11.7-2.3,23.5
					L1085.2,708.3L1085.2,708.3z"/>
				<path class="st30" d="M1256.1,561.1c14.7,0,24.4,5.3,29.1,15.8c4.8,10.5,7.2,28.4,7.2,53.5V781h-50V627c0-7.5-1-12.7-3-15.3
					c-2-2.7-5.2-4-9.7-4c-4.4,0-7.7,1.3-9.7,4s-3,7.8-3,15.3v153.9h-50V564.4h50v24.3C1225.4,570.3,1238.3,561.1,1256.1,561.1z"/>
			</g>
			<g class="st29">
				<path class="st31" d="M1028.6,611h-33.3v97.3c0,10.7,1.5,17.7,4.5,21s7.9,5,14.8,5h14v46.6h-27.3c-22.7,0-37.6-5.2-45-15.5
					c-7.3-10.3-11-29.4-11-57.1V611h-20v-46.6c16-4.7,23.8-21.3,23.3-50h50c0,29.5-7.8,46.2-23.3,50h53.3V611z"/>
				<path class="st31" d="M1035.3,708.3V637c0-50.6,20.9-75.9,62.6-75.9s62.6,25.3,62.6,75.9v71.3c0,50.6-20.9,75.9-62.6,75.9
					C1056.1,784.2,1035.3,758.9,1035.3,708.3z M1085.2,708.3c0,11.8,0.8,19.6,2.3,23.5c1.6,3.9,5,5.8,10.3,5.8s8.8-1.9,10.3-5.8
					c1.6-3.9,2.3-11.7,2.3-23.5V637c0-11.5-0.8-19.3-2.5-23.3s-5.1-6-10.2-6c-5.3,0-8.8,1.9-10.3,5.8c-1.6,3.9-2.3,11.7-2.3,23.5
					L1085.2,708.3L1085.2,708.3z"/>
				<path class="st31" d="M1256.1,561.1c14.7,0,24.4,5.3,29.1,15.8c4.8,10.5,7.2,28.4,7.2,53.5V781h-50V627c0-7.5-1-12.7-3-15.3
					c-2-2.7-5.2-4-9.7-4c-4.4,0-7.7,1.3-9.7,4s-3,7.8-3,15.3v153.9h-50V564.4h50v24.3C1225.4,570.3,1238.3,561.1,1256.1,561.1z"/>
			</g>
			<g class="st29">
				<path class="st2" d="M453.7,514.4c28.4,0,48.2,5.4,59.3,16.2s16.7,29.6,16.7,56.5v33.6c0,26.6-5.6,45.3-16.7,56
					c-11.1,10.7-30.9,16.2-59.3,16.7V781h-50V514.4H453.7z M453.7,643.3c10,0,16.8-1.4,20.5-4.3c3.7-2.9,5.5-9,5.5-18.3v-33.6
					c0-9.3-1.8-15.4-5.5-18.3c-3.7-2.9-10.5-4.3-20.5-4.3V643.3z"/>
				<path class="st2" d="M626.2,561.1c14.2,0,23.6,5.3,28.3,15.8s7,28.4,7,53.5v13.3h-50V627c0-7.1-1-12.1-3-15s-5.2-4.3-9.7-4.3
					c-4.4,0-7.7,1.4-9.7,4.3c-2,2.9-3,7.9-3,15v153.9h-50V564.4h50v24.3C594.5,570.3,607.8,561.1,626.2,561.1z"/>
				<path class="st2" d="M730.8,561.1c41.7,0,62.6,25.3,62.6,75.9v45.6h-75.3v25.6c0,11.8,0.8,19.6,2.3,23.5c1.6,3.9,5,5.8,10.3,5.8
					s8.8-1.9,10.3-5.8c1.6-3.9,2.3-11.7,2.3-23.5v-12.3h50v12.3c0,50.6-20.9,75.9-62.6,75.9c-41.8,0-62.6-25.3-62.6-75.9v-71.3
					C668.2,586.4,689.1,561.1,730.8,561.1z M743.5,649.3V637c0-11.5-0.8-19.3-2.5-23.3s-5.1-6-10.2-6c-5.3,0-8.8,1.9-10.3,5.8
					c-1.6,3.9-2.3,11.7-2.3,23.5v12.3H743.5z"/>
			</g>
			<g class="st29">
				<path class="st2" d="M883.7,654.6c14.7,10.9,25.3,20.9,31.8,30s9.8,21.4,9.8,37c0,19.5-5,34.9-15,46s-25.4,16.7-46.3,16.7
					c-22.4,0-38.7-5.9-48.8-17.7S800,734.3,800,705h50c0,12.4,1.1,21,3.3,25.6c2.2,4.7,5.8,7,10.7,7c7.5,0,11.3-5.3,11.3-16
					c0-5.5-2.1-10.8-6.2-15.8c-4.1-5-13.3-12.4-27.5-22.2c-6-4.2-10.2-7.2-12.7-9c-2.4-1.8-6-4.8-10.7-9.2s-8-8.3-10-12
					s-3.9-8.4-5.7-14.2s-2.7-12.1-2.7-19c0-17.8,5-32.1,15.2-43c10.1-10.9,25.1-16.3,45.1-16.3c41.1,0,61.6,24.2,61.6,72.6h-50
					c0-17.3-3.9-26-11.7-26c-6.9,0-10.3,4.2-10.3,12.7c0,1.1,0.1,2.2,0.3,3.2s0.4,1.9,0.7,2.8c0.2,0.9,0.7,1.8,1.3,2.8
					s1.3,1.9,1.8,2.7c0.6,0.8,1.5,1.7,2.8,2.8s2.5,2.1,3.5,2.8c1,0.8,2.5,1.9,4.5,3.5s3.7,2.8,5.2,3.8c1.4,1,3.5,2.6,6.3,4.7
					C879.3,651.6,881.7,653.3,883.7,654.6z"/>
			</g>
			<g class="st29">
				<path class="st2" d="M1028.6,611h-33.3v97.3c0,10.7,1.5,17.7,4.5,21s7.9,5,14.8,5h14v46.6h-27.3c-22.7,0-37.6-5.2-45-15.5
					c-7.3-10.3-11-29.4-11-57.1V611h-20v-46.6c16-4.7,23.8-21.3,23.3-50h50c0,29.5-7.8,46.2-23.3,50h53.3V611z"/>
				<path class="st2" d="M1035.3,708.3V637c0-50.6,20.9-75.9,62.6-75.9s62.6,25.3,62.6,75.9v71.3c0,50.6-20.9,75.9-62.6,75.9
					C1056.1,784.2,1035.3,758.9,1035.3,708.3z M1085.2,708.3c0,11.8,0.8,19.6,2.3,23.5c1.6,3.9,5,5.8,10.3,5.8s8.8-1.9,10.3-5.8
					c1.6-3.9,2.3-11.7,2.3-23.5V637c0-11.5-0.8-19.3-2.5-23.3s-5.1-6-10.2-6c-5.3,0-8.8,1.9-10.3,5.8c-1.6,3.9-2.3,11.7-2.3,23.5
					L1085.2,708.3L1085.2,708.3z"/>
				<path class="st2" d="M1256.1,561.1c14.7,0,24.4,5.3,29.1,15.8c4.8,10.5,7.2,28.4,7.2,53.5V781h-50V627c0-7.5-1-12.7-3-15.3
					c-2-2.7-5.2-4-9.7-4c-4.4,0-7.7,1.3-9.7,4s-3,7.8-3,15.3v153.9h-50V564.4h50v24.3C1225.4,570.3,1238.3,561.1,1256.1,561.1z"/>
			</g>
			<g class="st29">
				<path class="st30" d="M320.8,884.7v-32.3c0-11.8-0.8-19.6-2.3-23.5c-1.6-3.9-5-5.8-10.3-5.8s-8.8,1.9-10.3,5.8
					c-1.6,3.9-2.3,11.7-2.3,23.5V967c0,11.8,0.8,19.6,2.3,23.5c1.6,3.9,5,5.8,10.3,5.8s8.8-1.9,10.3-5.8c1.6-3.9,2.3-11.7,2.3-23.5
					v-32.3h50v35.6c0,50.6-20.9,75.9-62.6,75.9c-41.8,0-62.6-25.3-62.6-75.9V849.1c0-50.6,20.9-75.9,62.6-75.9s62.6,25.3,62.6,75.9
					v35.6L320.8,884.7L320.8,884.7z"/>
				<path class="st30" d="M420.1,810.1c-4.9,4.2-10.8,6.3-17.7,6.3c-6.9,0-12.8-2.1-17.7-6.3c-4.9-4.2-7.3-9.2-7.3-15
					c0-6.2,2.4-11.4,7.3-15.7c4.9-4.2,10.8-6.3,17.7-6.3c6.9,0,12.8,2.1,17.7,6.3c4.9,4.2,7.3,9.4,7.3,15.7
					C427.4,800.9,425,805.9,420.1,810.1z M377.4,826.4h50v216.5h-50L377.4,826.4L377.4,826.4z"/>
				<path class="st30" d="M537.3,873.1H504v97.3c0,10.7,1.5,17.7,4.5,21s7.9,5,14.8,5h14v46.6H510c-22.7,0-37.6-5.2-45-15.5
					c-7.3-10.3-11-29.4-11-57.1v-97.3h-20v-46.6c16-4.7,23.8-21.3,23.3-50h50c0,29.5-7.8,46.2-23.3,50h53.3V873.1z"/>
				<path class="st30" d="M619.3,826.4h50v210.5c0,27.8-3.7,46.8-11,57.1c-7.3,10.3-22.3,15.5-45,15.5H554v-46.6h46
					c6.9,0,11.8-1.7,14.8-5s4.5-10.3,4.5-21v-18.3c-8.2,18.4-21.2,27.6-39,27.6c-14.7,0-24.4-5.3-29.1-15.8
					c-4.8-10.5-7.2-28.4-7.2-53.5V826.3h50v153.9c0,7.6,1,12.7,3,15.3c2,2.7,5.2,4,9.7,4c4.4,0,7.7-1.3,9.7-4s3-7.8,3-15.3V826.4
					H619.3z"/>
				<path class="st30" d="M847.7,884.7h-50v-32.3c0-11.5-0.8-19.3-2.5-23.3c-1.7-4-5.1-6-10.2-6c-5.3,0-8.8,1.9-10.3,5.8
					c-1.6,3.9-2.3,11.7-2.3,23.5V967c0,11.8,0.8,19.6,2.3,23.5c1.6,3.9,5,5.8,10.3,5.8s8.8-1.9,10.3-5.8c1.6-3.9,2.3-11.7,2.3-23.5
					v-12.3h-12.7v-50h62.6v138.2h-20l-8-19c-11.8,14.9-25.9,22.3-42.3,22.3c-18.4,0-32.2-6-41.3-18.2c-9.1-12.1-13.7-31.4-13.7-57.8
					V849c0-50.6,20.9-75.9,62.6-75.9c41.7,0,62.6,25.3,62.6,75.9v35.7H847.7z"/>
				<path class="st30" d="M983,1011c0,14.2,1.1,24.9,3.3,32H943c-6.7-4-10-12.1-10-24.3c-4,9.8-8.8,16.8-14.3,21.2
					c-5.6,4.3-13,6.5-22.3,6.5c-12,0-22-4.7-30-14.2c-8-9.4-12-23.5-12-42.1c0-12,1.9-22.6,5.8-31.8c3.9-9.2,8.7-16.4,14.5-21.5
					s12-9.9,18.8-14.5c6.8-4.5,13.1-8.3,19-11.2c5.9-2.9,10.8-6.5,14.7-11c3.9-4.4,5.8-9.3,5.8-14.7c0-6-0.9-10.1-2.7-12.3
					c-1.8-2.2-5-3.3-9.7-3.3s-8,1.7-10,5.2c-2,3.4-3,9.3-3,17.5v6.7h-50v-6.7c0-23.5,5-41,15.2-52.3c10.1-11.3,26-17,47.8-17
					c21.5,0,37.3,5.6,47.3,16.8c10,11.2,15,28.7,15,52.5L983,1011L983,1011z M933,991.3V939c-2.4,3.3-6.3,7.4-11.5,12.2
					c-5.2,4.8-9.4,9.4-12.5,14s-4.7,9.8-4.7,15.8c0,12.4,4.7,18.7,14,18.7C923.5,999.6,928.4,996.9,933,991.3z"/>
				<path class="st30" d="M1152.2,823.1c13.8,0,23,5.3,27.6,15.8c4.7,10.5,7,28.4,7,53.5V1043h-50V889.1c0-7.5-0.9-12.7-2.7-15.3
					c-1.8-2.7-4.6-4-8.3-4c-3.8,0-6.6,1.3-8.3,4c-1.8,2.7-2.7,7.8-2.7,15.3v3.3V1043h-50V889.1c0-7.5-0.9-12.7-2.7-15.3
					c-1.8-2.7-4.6-4-8.3-4c-3.8,0-6.6,1.3-8.3,4c-1.8,2.7-2.7,7.8-2.7,15.3V1043h-50V826.5h50v24.3c8.2-18.4,20.7-27.6,37.3-27.6
					c9.3,0,16.5,2.4,21.5,7.2s8.5,12.2,10.5,22.2c3.1-8,8.2-14.9,15.3-20.7C1134.6,826,1142.9,823.1,1152.2,823.1z"/>
				<path class="st30" d="M1256.1,823.1c41.7,0,62.6,25.3,62.6,75.9v45.6h-75.3v25.6c0,11.8,0.8,19.6,2.3,23.5
					c1.6,3.9,5,5.8,10.3,5.8s8.8-1.9,10.3-5.8c1.6-3.9,2.3-11.7,2.3-23.5v-12.3h50v12.3c0,50.6-20.9,75.9-62.6,75.9
					c-41.8,0-62.6-25.3-62.6-75.9v-71.3C1193.5,848.4,1214.4,823.1,1256.1,823.1z M1268.8,911.4v-12.3c0-11.5-0.8-19.3-2.5-23.3
					s-5.1-6-10.2-6c-5.3,0-8.8,1.9-10.3,5.8c-1.6,3.9-2.3,11.7-2.3,23.5v12.3H1268.8z"/>
				<path class="st30" d="M1409,916.7c14.7,10.9,25.3,20.9,31.8,30s9.8,21.4,9.8,37c0,19.5-5,34.9-15,46s-25.4,16.7-46.3,16.7
					c-22.4,0-38.7-5.9-48.8-17.7c-10.1-11.8-15.2-32.3-15.2-61.6h50c0,12.4,1.1,21,3.3,25.6c2.2,4.7,5.8,7,10.7,7
					c7.5,0,11.3-5.3,11.3-16c0-5.5-2.1-10.8-6.2-15.8s-13.3-12.4-27.5-22.2c-6-4.2-10.2-7.2-12.7-9c-2.4-1.8-6-4.8-10.7-9.2
					c-4.7-4.3-8-8.3-10-12s-3.9-8.4-5.7-14.2c-1.8-5.8-2.7-12.1-2.7-19c0-17.8,5-32.1,15.2-43c10.1-10.9,25.1-16.3,45.1-16.3
					c41.1,0,61.6,24.2,61.6,72.6h-50c0-17.3-3.9-26-11.7-26c-6.9,0-10.3,4.2-10.3,12.7c0,1.1,0.1,2.2,0.3,3.2c0.2,1,0.4,1.9,0.7,2.8
					c0.2,0.9,0.7,1.8,1.3,2.8c0.7,1,1.3,1.9,1.8,2.7c0.6,0.8,1.5,1.7,2.8,2.8c1.3,1.1,2.5,2.1,3.5,2.8c1,0.8,2.5,1.9,4.5,3.5
					s3.7,2.8,5.2,3.8c1.4,1,3.5,2.6,6.3,4.7C1404.6,913.7,1407,915.4,1409,916.7z"/>
			</g>
			<g class="st29">
				<path class="st31" d="M320.8,884.7v-32.3c0-11.8-0.8-19.6-2.3-23.5c-1.6-3.9-5-5.8-10.3-5.8s-8.8,1.9-10.3,5.8
					c-1.6,3.9-2.3,11.7-2.3,23.5V967c0,11.8,0.8,19.6,2.3,23.5c1.6,3.9,5,5.8,10.3,5.8s8.8-1.9,10.3-5.8c1.6-3.9,2.3-11.7,2.3-23.5
					v-32.3h50v35.6c0,50.6-20.9,75.9-62.6,75.9c-41.8,0-62.6-25.3-62.6-75.9V849.1c0-50.6,20.9-75.9,62.6-75.9s62.6,25.3,62.6,75.9
					v35.6L320.8,884.7L320.8,884.7z"/>
				<path class="st31" d="M420.1,810.1c-4.9,4.2-10.8,6.3-17.7,6.3c-6.9,0-12.8-2.1-17.7-6.3c-4.9-4.2-7.3-9.2-7.3-15
					c0-6.2,2.4-11.4,7.3-15.7c4.9-4.2,10.8-6.3,17.7-6.3c6.9,0,12.8,2.1,17.7,6.3c4.9,4.2,7.3,9.4,7.3,15.7
					C427.4,800.9,425,805.9,420.1,810.1z M377.4,826.4h50v216.5h-50L377.4,826.4L377.4,826.4z"/>
				<path class="st31" d="M537.3,873.1H504v97.3c0,10.7,1.5,17.7,4.5,21s7.9,5,14.8,5h14v46.6H510c-22.7,0-37.6-5.2-45-15.5
					c-7.3-10.3-11-29.4-11-57.1v-97.3h-20v-46.6c16-4.7,23.8-21.3,23.3-50h50c0,29.5-7.8,46.2-23.3,50h53.3V873.1z"/>
				<path class="st31" d="M619.3,826.4h50v210.5c0,27.8-3.7,46.8-11,57.1c-7.3,10.3-22.3,15.5-45,15.5H554v-46.6h46
					c6.9,0,11.8-1.7,14.8-5s4.5-10.3,4.5-21v-18.3c-8.2,18.4-21.2,27.6-39,27.6c-14.7,0-24.4-5.3-29.1-15.8
					c-4.8-10.5-7.2-28.4-7.2-53.5V826.3h50v153.9c0,7.6,1,12.7,3,15.3c2,2.7,5.2,4,9.7,4c4.4,0,7.7-1.3,9.7-4s3-7.8,3-15.3V826.4
					H619.3z"/>
				<path class="st31" d="M847.7,884.7h-50v-32.3c0-11.5-0.8-19.3-2.5-23.3c-1.7-4-5.1-6-10.2-6c-5.3,0-8.8,1.9-10.3,5.8
					c-1.6,3.9-2.3,11.7-2.3,23.5V967c0,11.8,0.8,19.6,2.3,23.5c1.6,3.9,5,5.8,10.3,5.8s8.8-1.9,10.3-5.8c1.6-3.9,2.3-11.7,2.3-23.5
					v-12.3h-12.7v-50h62.6v138.2h-20l-8-19c-11.8,14.9-25.9,22.3-42.3,22.3c-18.4,0-32.2-6-41.3-18.2c-9.1-12.1-13.7-31.4-13.7-57.8
					V849c0-50.6,20.9-75.9,62.6-75.9c41.7,0,62.6,25.3,62.6,75.9v35.7H847.7z"/>
				<path class="st31" d="M983,1011c0,14.2,1.1,24.9,3.3,32H943c-6.7-4-10-12.1-10-24.3c-4,9.8-8.8,16.8-14.3,21.2
					c-5.6,4.3-13,6.5-22.3,6.5c-12,0-22-4.7-30-14.2c-8-9.4-12-23.5-12-42.1c0-12,1.9-22.6,5.8-31.8c3.9-9.2,8.7-16.4,14.5-21.5
					s12-9.9,18.8-14.5c6.8-4.5,13.1-8.3,19-11.2c5.9-2.9,10.8-6.5,14.7-11c3.9-4.4,5.8-9.3,5.8-14.7c0-6-0.9-10.1-2.7-12.3
					c-1.8-2.2-5-3.3-9.7-3.3s-8,1.7-10,5.2c-2,3.4-3,9.3-3,17.5v6.7h-50v-6.7c0-23.5,5-41,15.2-52.3c10.1-11.3,26-17,47.8-17
					c21.5,0,37.3,5.6,47.3,16.8c10,11.2,15,28.7,15,52.5L983,1011L983,1011z M933,991.3V939c-2.4,3.3-6.3,7.4-11.5,12.2
					c-5.2,4.8-9.4,9.4-12.5,14s-4.7,9.8-4.7,15.8c0,12.4,4.7,18.7,14,18.7C923.5,999.6,928.4,996.9,933,991.3z"/>
				<path class="st31" d="M1152.2,823.1c13.8,0,23,5.3,27.6,15.8c4.7,10.5,7,28.4,7,53.5V1043h-50V889.1c0-7.5-0.9-12.7-2.7-15.3
					c-1.8-2.7-4.6-4-8.3-4c-3.8,0-6.6,1.3-8.3,4c-1.8,2.7-2.7,7.8-2.7,15.3v3.3V1043h-50V889.1c0-7.5-0.9-12.7-2.7-15.3
					c-1.8-2.7-4.6-4-8.3-4c-3.8,0-6.6,1.3-8.3,4c-1.8,2.7-2.7,7.8-2.7,15.3V1043h-50V826.5h50v24.3c8.2-18.4,20.7-27.6,37.3-27.6
					c9.3,0,16.5,2.4,21.5,7.2s8.5,12.2,10.5,22.2c3.1-8,8.2-14.9,15.3-20.7C1134.6,826,1142.9,823.1,1152.2,823.1z"/>
				<path class="st31" d="M1256.1,823.1c41.7,0,62.6,25.3,62.6,75.9v45.6h-75.3v25.6c0,11.8,0.8,19.6,2.3,23.5
					c1.6,3.9,5,5.8,10.3,5.8s8.8-1.9,10.3-5.8c1.6-3.9,2.3-11.7,2.3-23.5v-12.3h50v12.3c0,50.6-20.9,75.9-62.6,75.9
					c-41.8,0-62.6-25.3-62.6-75.9v-71.3C1193.5,848.4,1214.4,823.1,1256.1,823.1z M1268.8,911.4v-12.3c0-11.5-0.8-19.3-2.5-23.3
					s-5.1-6-10.2-6c-5.3,0-8.8,1.9-10.3,5.8c-1.6,3.9-2.3,11.7-2.3,23.5v12.3H1268.8z"/>
				<path class="st31" d="M1409,916.7c14.7,10.9,25.3,20.9,31.8,30s9.8,21.4,9.8,37c0,19.5-5,34.9-15,46s-25.4,16.7-46.3,16.7
					c-22.4,0-38.7-5.9-48.8-17.7c-10.1-11.8-15.2-32.3-15.2-61.6h50c0,12.4,1.1,21,3.3,25.6c2.2,4.7,5.8,7,10.7,7
					c7.5,0,11.3-5.3,11.3-16c0-5.5-2.1-10.8-6.2-15.8s-13.3-12.4-27.5-22.2c-6-4.2-10.2-7.2-12.7-9c-2.4-1.8-6-4.8-10.7-9.2
					c-4.7-4.3-8-8.3-10-12s-3.9-8.4-5.7-14.2c-1.8-5.8-2.7-12.1-2.7-19c0-17.8,5-32.1,15.2-43c10.1-10.9,25.1-16.3,45.1-16.3
					c41.1,0,61.6,24.2,61.6,72.6h-50c0-17.3-3.9-26-11.7-26c-6.9,0-10.3,4.2-10.3,12.7c0,1.1,0.1,2.2,0.3,3.2c0.2,1,0.4,1.9,0.7,2.8
					c0.2,0.9,0.7,1.8,1.3,2.8c0.7,1,1.3,1.9,1.8,2.7c0.6,0.8,1.5,1.7,2.8,2.8c1.3,1.1,2.5,2.1,3.5,2.8c1,0.8,2.5,1.9,4.5,3.5
					s3.7,2.8,5.2,3.8c1.4,1,3.5,2.6,6.3,4.7C1404.6,913.7,1407,915.4,1409,916.7z"/>
			</g>
			<g class="st29">
				<path class="st32" d="M320.8,884.7v-32.3c0-11.8-0.8-19.6-2.3-23.5c-1.6-3.9-5-5.8-10.3-5.8s-8.8,1.9-10.3,5.8
					c-1.6,3.9-2.3,11.7-2.3,23.5V967c0,11.8,0.8,19.6,2.3,23.5c1.6,3.9,5,5.8,10.3,5.8s8.8-1.9,10.3-5.8c1.6-3.9,2.3-11.7,2.3-23.5
					v-32.3h50v35.6c0,50.6-20.9,75.9-62.6,75.9c-41.8,0-62.6-25.3-62.6-75.9V849.1c0-50.6,20.9-75.9,62.6-75.9s62.6,25.3,62.6,75.9
					v35.6L320.8,884.7L320.8,884.7z"/>
				<path class="st32" d="M420.1,810.1c-4.9,4.2-10.8,6.3-17.7,6.3c-6.9,0-12.8-2.1-17.7-6.3c-4.9-4.2-7.3-9.2-7.3-15
					c0-6.2,2.4-11.4,7.3-15.7c4.9-4.2,10.8-6.3,17.7-6.3c6.9,0,12.8,2.1,17.7,6.3c4.9,4.2,7.3,9.4,7.3,15.7
					C427.4,800.9,425,805.9,420.1,810.1z M377.4,826.4h50v216.5h-50L377.4,826.4L377.4,826.4z"/>
				<path class="st32" d="M537.3,873.1H504v97.3c0,10.7,1.5,17.7,4.5,21s7.9,5,14.8,5h14v46.6H510c-22.7,0-37.6-5.2-45-15.5
					c-7.3-10.3-11-29.4-11-57.1v-97.3h-20v-46.6c16-4.7,23.8-21.3,23.3-50h50c0,29.5-7.8,46.2-23.3,50h53.3V873.1z"/>
				<path class="st32" d="M619.3,826.4h50v210.5c0,27.8-3.7,46.8-11,57.1c-7.3,10.3-22.3,15.5-45,15.5H554v-46.6h46
					c6.9,0,11.8-1.7,14.8-5s4.5-10.3,4.5-21v-18.3c-8.2,18.4-21.2,27.6-39,27.6c-14.7,0-24.4-5.3-29.1-15.8
					c-4.8-10.5-7.2-28.4-7.2-53.5V826.3h50v153.9c0,7.6,1,12.7,3,15.3c2,2.7,5.2,4,9.7,4c4.4,0,7.7-1.3,9.7-4s3-7.8,3-15.3V826.4
					H619.3z"/>
				<path class="st32" d="M847.7,884.7h-50v-32.3c0-11.5-0.8-19.3-2.5-23.3c-1.7-4-5.1-6-10.2-6c-5.3,0-8.8,1.9-10.3,5.8
					c-1.6,3.9-2.3,11.7-2.3,23.5V967c0,11.8,0.8,19.6,2.3,23.5c1.6,3.9,5,5.8,10.3,5.8s8.8-1.9,10.3-5.8c1.6-3.9,2.3-11.7,2.3-23.5
					v-12.3h-12.7v-50h62.6v138.2h-20l-8-19c-11.8,14.9-25.9,22.3-42.3,22.3c-18.4,0-32.2-6-41.3-18.2c-9.1-12.1-13.7-31.4-13.7-57.8
					V849c0-50.6,20.9-75.9,62.6-75.9c41.7,0,62.6,25.3,62.6,75.9v35.7H847.7z"/>
				<path class="st32" d="M983,1011c0,14.2,1.1,24.9,3.3,32H943c-6.7-4-10-12.1-10-24.3c-4,9.8-8.8,16.8-14.3,21.2
					c-5.6,4.3-13,6.5-22.3,6.5c-12,0-22-4.7-30-14.2c-8-9.4-12-23.5-12-42.1c0-12,1.9-22.6,5.8-31.8c3.9-9.2,8.7-16.4,14.5-21.5
					s12-9.9,18.8-14.5c6.8-4.5,13.1-8.3,19-11.2c5.9-2.9,10.8-6.5,14.7-11c3.9-4.4,5.8-9.3,5.8-14.7c0-6-0.9-10.1-2.7-12.3
					c-1.8-2.2-5-3.3-9.7-3.3s-8,1.7-10,5.2c-2,3.4-3,9.3-3,17.5v6.7h-50v-6.7c0-23.5,5-41,15.2-52.3c10.1-11.3,26-17,47.8-17
					c21.5,0,37.3,5.6,47.3,16.8c10,11.2,15,28.7,15,52.5L983,1011L983,1011z M933,991.3V939c-2.4,3.3-6.3,7.4-11.5,12.2
					c-5.2,4.8-9.4,9.4-12.5,14s-4.7,9.8-4.7,15.8c0,12.4,4.7,18.7,14,18.7C923.5,999.6,928.4,996.9,933,991.3z"/>
				<path class="st32" d="M1152.2,823.1c13.8,0,23,5.3,27.6,15.8c4.7,10.5,7,28.4,7,53.5V1043h-50V889.1c0-7.5-0.9-12.7-2.7-15.3
					c-1.8-2.7-4.6-4-8.3-4c-3.8,0-6.6,1.3-8.3,4c-1.8,2.7-2.7,7.8-2.7,15.3v3.3V1043h-50V889.1c0-7.5-0.9-12.7-2.7-15.3
					c-1.8-2.7-4.6-4-8.3-4c-3.8,0-6.6,1.3-8.3,4c-1.8,2.7-2.7,7.8-2.7,15.3V1043h-50V826.5h50v24.3c8.2-18.4,20.7-27.6,37.3-27.6
					c9.3,0,16.5,2.4,21.5,7.2s8.5,12.2,10.5,22.2c3.1-8,8.2-14.9,15.3-20.7C1134.6,826,1142.9,823.1,1152.2,823.1z"/>
				<path class="st32" d="M1256.1,823.1c41.7,0,62.6,25.3,62.6,75.9v45.6h-75.3v25.6c0,11.8,0.8,19.6,2.3,23.5
					c1.6,3.9,5,5.8,10.3,5.8s8.8-1.9,10.3-5.8c1.6-3.9,2.3-11.7,2.3-23.5v-12.3h50v12.3c0,50.6-20.9,75.9-62.6,75.9
					c-41.8,0-62.6-25.3-62.6-75.9v-71.3C1193.5,848.4,1214.4,823.1,1256.1,823.1z M1268.8,911.4v-12.3c0-11.5-0.8-19.3-2.5-23.3
					s-5.1-6-10.2-6c-5.3,0-8.8,1.9-10.3,5.8c-1.6,3.9-2.3,11.7-2.3,23.5v12.3H1268.8z"/>
				<path class="st32" d="M1409,916.7c14.7,10.9,25.3,20.9,31.8,30s9.8,21.4,9.8,37c0,19.5-5,34.9-15,46s-25.4,16.7-46.3,16.7
					c-22.4,0-38.7-5.9-48.8-17.7c-10.1-11.8-15.2-32.3-15.2-61.6h50c0,12.4,1.1,21,3.3,25.6c2.2,4.7,5.8,7,10.7,7
					c7.5,0,11.3-5.3,11.3-16c0-5.5-2.1-10.8-6.2-15.8s-13.3-12.4-27.5-22.2c-6-4.2-10.2-7.2-12.7-9c-2.4-1.8-6-4.8-10.7-9.2
					c-4.7-4.3-8-8.3-10-12s-3.9-8.4-5.7-14.2c-1.8-5.8-2.7-12.1-2.7-19c0-17.8,5-32.1,15.2-43c10.1-10.9,25.1-16.3,45.1-16.3
					c41.1,0,61.6,24.2,61.6,72.6h-50c0-17.3-3.9-26-11.7-26c-6.9,0-10.3,4.2-10.3,12.7c0,1.1,0.1,2.2,0.3,3.2c0.2,1,0.4,1.9,0.7,2.8
					c0.2,0.9,0.7,1.8,1.3,2.8c0.7,1,1.3,1.9,1.8,2.7c0.6,0.8,1.5,1.7,2.8,2.8c1.3,1.1,2.5,2.1,3.5,2.8c1,0.8,2.5,1.9,4.5,3.5
					s3.7,2.8,5.2,3.8c1.4,1,3.5,2.6,6.3,4.7C1404.6,913.7,1407,915.4,1409,916.7z"/>
			</g>
		</g>
	</g>
</g>
</svg>
