<?xml version="1.0" encoding="utf-8"?>
<!-- Generator: Adobe Illustrator 27.4.1, SVG Export Plug-In . SVG Version: 6.00 Build 0)  -->
<svg version="1.1" id="Layer_1" xmlns="http://www.w3.org/2000/svg" xmlns:xlink="http://www.w3.org/1999/xlink" x="0px" y="0px"
	 viewBox="0 0 246.9 353.9" style="enable-background:new 0 0 246.9 353.9;" xml:space="preserve">
<style type="text/css">
	.st0{clip-path:url(#SVGID_00000165210570882329397540000007415759110723173040_);}
	.st1{fill:none;stroke:#FFFFFF;stroke-width:0.1;stroke-miterlimit:10;}
	.st2{fill:#FFFFFF;}
	.st3{clip-path:url(#SVGID_00000011728674676799489050000009605877437180920232_);}
	.st4{clip-path:url(#SVGID_00000092421161575547195850000017492795367404685734_);}
	.st5{clip-path:url(#SVGID_00000125588477883335899220000004869576653773805224_);}
</style>
<g id="Rounders">
	<g>
		<defs>
			<rect id="SVGID_1_" y="0" width="180" height="116.7"/>
		</defs>
		<clipPath id="SVGID_00000028290810347173076890000011759682015559882387_">
			<use xlink:href="#SVGID_1_"  style="overflow:visible;"/>
		</clipPath>
		<g style="clip-path:url(#SVGID_00000028290810347173076890000011759682015559882387_);">
			<path class="st1" d="M12.2,54.4c48.6-17.3,97.1-34.9,145.7-52.2c4.3-2.3,9.2,1.6,8.6,6.2c-0.1,3.5-3.8,4.8-6.6,5.8
				c-44.7,15.9-89.4,32.2-134.1,48C47.1,82.1,76.5,90.7,105,93c20.1,2,39.8-3.1,58.9-8.8c2.7-0.9,6.1-1.6,8.6,0.2
				c7.5,5.3,7.1,19.1-1.7,23c-15.9,7.6-34.1,8.4-51.4,7.3c-22.7-2.2-44.9-9.3-65-20c-13.3-7.3-25.8-17.1-33-30.8
				c-5.3,1.8-10.5,4.5-16.2,4.7c-2.8-1.7-4.9-5.3-3.4-8.6C3.9,56.4,8.7,56.1,12.2,54.4L12.2,54.4z"/>
		</g>
	</g>
	<path class="st2" d="M12.2,54.4c48.6-17.3,97.1-34.9,145.7-52.2c4.3-2.3,9.2,1.6,8.6,6.2c-0.1,3.5-3.8,4.8-6.6,5.8
		c-44.7,15.9-89.4,32.2-134.1,48C47.1,82.1,76.5,90.7,105,93c20.1,2,39.8-3.1,58.9-8.8c2.7-0.9,6.1-1.6,8.6,0.2
		c7.5,5.3,7.1,19.1-1.7,23c-15.9,7.6-34.1,8.4-51.4,7.3c-22.7-2.2-44.9-9.3-65-20c-13.3-7.3-25.8-17.1-33-30.8
		c-5.3,1.8-10.5,4.5-16.2,4.7c-2.8-1.7-4.9-5.3-3.4-8.6C3.9,56.4,8.7,56.1,12.2,54.4L12.2,54.4z"/>
	<path class="st1" d="M113,35.8c8.8-1,18,2.4,23.8,9c4,4.9,6.6,11,6.6,17.4c-0.8,7.8-4.7,15.5-11.2,20c-7.8,5.5-18.4,6.6-27.1,2.7
		c-12.7-5-20.1-21.3-13.5-33.7C95.3,42.6,103.9,37,113,35.8L113,35.8z"/>
	<path class="st2" d="M113,35.8c8.8-1,18,2.4,23.8,9c4,4.9,6.6,11,6.6,17.4c-0.8,7.8-4.7,15.5-11.2,20c-7.8,5.5-18.4,6.6-27.1,2.7
		c-12.7-5-20.1-21.3-13.5-33.7C95.3,42.6,103.9,37,113,35.8L113,35.8z"/>
	<g>
		<defs>
			<rect id="SVGID_00000134215385601516124250000009037340194771270023_" x="160" y="164.8" width="86.9" height="189.1"/>
		</defs>
		<clipPath id="SVGID_00000183953191959564391120000014432659249993752736_">
			<use xlink:href="#SVGID_00000134215385601516124250000009037340194771270023_"  style="overflow:visible;"/>
		</clipPath>
		<g style="clip-path:url(#SVGID_00000183953191959564391120000014432659249993752736_);">
			<path class="st1" d="M171.3,169c4.5-2.2,9.5-0.9,14.2-0.6c8.3,6.4,13.2,16.3,15,26.5c3,17.2,3.9,34.7,8.7,51.5
				c4.4,17.5,10.8,34.3,16.8,51.3c6.9,17.1,13.1,34.5,20.5,51.4c0,0.7,0,2.2,0,3c-1.4-0.8-2.7-1.9-3.6-3.2
				c-8.9-11.1-17.9-22.1-26.8-33.1c-11.4-16.1-20-33.9-28.6-51.6c-8.2-18-16-36.3-21.4-55.4c-3-9.1-4.5-18.8-3.1-28.4
				C163.7,175.5,166.6,170.8,171.3,169L171.3,169z"/>
		</g>
	</g>
	<path class="st2" d="M171.3,169c4.5-2.2,9.5-0.9,14.2-0.6c8.3,6.4,13.2,16.3,15,26.5c3,17.2,3.9,34.7,8.7,51.5
		c4.4,17.5,10.8,34.3,16.8,51.3c6.9,17.1,13.1,34.5,20.5,51.4c0,0.7,0,2.2,0,3c-1.4-0.8-2.7-1.9-3.6-3.2
		c-8.9-11.1-17.9-22.1-26.8-33.1c-11.4-16.1-20-33.9-28.6-51.6c-8.2-18-16-36.3-21.4-55.4c-3-9.1-4.5-18.8-3.1-28.4
		C163.7,175.5,166.6,170.8,171.3,169L171.3,169z"/>
	<g>
		<defs>
			<rect id="SVGID_00000132088318677028160090000017492401866258505915_" x="77.3" y="182.1" width="80" height="171.8"/>
		</defs>
		<clipPath id="SVGID_00000173878666403277410620000010354285341644036256_">
			<use xlink:href="#SVGID_00000132088318677028160090000017492401866258505915_"  style="overflow:visible;"/>
		</clipPath>
		<g style="clip-path:url(#SVGID_00000173878666403277410620000010354285341644036256_);">
			<path class="st1" d="M135.9,186.2c4.9-1.6,11.3-3.7,15.3,0.8c5.1,5.9,2.9,14.3,1.3,21.1c-3.4,11.2-10.8,20.4-17.5,29.7
				c-16,21.2-25.7,46.1-35.7,70.4c-5.7,15.2-10.8,30.6-17,45.6c-3.2-1.1-1.3-4.9-1.3-7.3c3-18.9,4.7-37.9,8.8-56.6
				c5.1-26,12.5-51.6,22.5-76.1C116.9,202.6,123.9,190.9,135.9,186.2L135.9,186.2z"/>
		</g>
	</g>
	<g>
		<defs>
			<rect id="SVGID_00000005974600613593838450000014299252571166771844_" x="80" y="183.4" width="74.7" height="170.5"/>
		</defs>
		<clipPath id="SVGID_00000170246624270949865660000008331459393228726660_">
			<use xlink:href="#SVGID_00000005974600613593838450000014299252571166771844_"  style="overflow:visible;"/>
		</clipPath>
		<g style="clip-path:url(#SVGID_00000170246624270949865660000008331459393228726660_);">
			<path class="st2" d="M135.9,186.2c4.9-1.6,11.3-3.7,15.3,0.8c5.1,5.9,2.9,14.3,1.3,21.1c-3.4,11.2-10.8,20.4-17.5,29.7
				c-16,21.2-25.7,46.1-35.7,70.4c-5.7,15.2-10.8,30.6-17,45.6c-3.2-1.1-1.3-4.9-1.3-7.3c3-18.9,4.7-37.9,8.8-56.6
				c5.1-26,12.5-51.6,22.5-76.1C116.9,202.6,123.9,190.9,135.9,186.2L135.9,186.2z"/>
		</g>
	</g>
</g>
</svg>
